<?xml version="1.0" encoding="UTF-8"?>
<svg version="1.1" xmlns="http://www.w3.org/2000/svg" width="256" height="256">
<path d="M0 0 C13.76312986 9.22755297 21.60670143 22.42109097 24.8125 38.5625 C28.16527878 58.07122631 28.72453993 80.83587935 17.52734375 97.90234375 C15.46919027 100.7290149 13.33187465 103.39378715 11 106 C19.42930457 105.41104356 27.76106687 104.42152383 36.12490845 103.22750664 C38.24574839 102.92529354 40.36725709 102.62824033 42.48901367 102.33253479 C48.51228214 101.49252633 54.53465197 100.64632065 60.55566406 99.7902832 C64.26438544 99.26336317 67.97417558 98.74459581 71.6847229 98.23069954 C73.0819446 98.03560267 74.47875459 97.83752953 75.87509155 97.63619804 C99.6638398 94.20875877 99.6638398 94.20875877 109.5 99.6875 C110.17546875 100.02716797 110.8509375 100.36683594 111.546875 100.71679688 C118.12952931 104.18305677 121.70051538 108.88230681 124 116 C124.26921925 118.74694752 124.40184565 121.25737508 124.37231445 123.99560547 C124.37596512 124.76245667 124.37961578 125.52930786 124.38337708 126.31939697 C124.39143312 128.83555779 124.37791153 131.35106434 124.36328125 133.8671875 C124.36276194 135.62924194 124.36328238 137.39129696 124.36479187 139.15335083 C124.36470236 142.84011526 124.35431846 146.52666007 124.33618164 150.21337891 C124.31352882 154.91947609 124.31294673 159.62525181 124.31969929 164.33138847 C124.32305503 167.96899224 124.3163785 171.60652388 124.30657005 175.24411392 C124.30274289 176.9783096 124.30155944 178.71251333 124.3031559 180.44671249 C124.30655687 202.54564753 124.30655687 202.54564753 119.125 209.875 C118.63257813 210.59429687 118.14015625 211.31359375 117.6328125 212.0546875 C116 214 116 214 113.8984375 215.4765625 C111.56483382 217.34920743 111.22573619 218.6352519 110.5 221.5 C109.50585056 225.42427409 108.41254804 226.8186475 105 229 C102.79449463 229.63536072 102.79449463 229.63536072 100.34472656 230.00756836 C99.40707458 230.1548085 98.46942261 230.30204865 97.50335693 230.45375061 C95.96255463 230.67580421 95.96255463 230.67580421 94.390625 230.90234375 C92.75096771 231.15104469 92.75096771 231.15104469 91.07818604 231.4047699 C77.48528754 233.43352812 63.8564983 235.21892468 50.22705078 236.98217773 C47.24905584 237.36744594 44.27153782 237.75610169 41.29443359 238.14819336 C-15.2307951 245.59218355 -15.2307951 245.59218355 -41.625 245.375 C-43.13225143 245.36901794 -43.13225143 245.36901794 -44.66995239 245.36291504 C-60.62966908 245.28914932 -76.21310528 244.48182755 -92 242 C-93.63291992 241.75926758 -93.63291992 241.75926758 -95.29882812 241.51367188 C-98.59803006 241.02652857 -101.89331118 240.51991013 -105.1875 240 C-106.65014282 239.76941895 -106.65014282 239.76941895 -108.14233398 239.53417969 C-113.74210393 238.58257836 -118.79537725 237.30516163 -124 235 C-125.38226016 232.23547967 -125.09525387 229.9538637 -125.0625 226.875 C-125.05347656 225.77929688 -125.04445313 224.68359375 -125.03515625 223.5546875 C-125.02355469 222.71164063 -125.01195313 221.86859375 -125 221 C-122.69 220.01 -120.38 219.02 -118 218 C-118.81404297 217.14728516 -118.81404297 217.14728516 -119.64453125 216.27734375 C-127.34670527 207.96454692 -130.40425394 200.69767776 -130.28125 189.2890625 C-128.10227896 163.8072067 -112.91471831 140.40292292 -95.9453125 122.15625 C-94.16175598 120.17929578 -92.55859056 118.15654039 -91 116 C-91.598125 115.319375 -92.19625 114.63875 -92.8125 113.9375 C-98.500756 106.2989848 -99.56179298 98.22589752 -98.71484375 88.83984375 C-98.04456317 84.38444928 -97.18350876 80.39643413 -95.42578125 76.25 C-93.60653875 71.53311527 -93.74779498 67.24290457 -93.9375 62.25 C-94.32305782 40.0587867 -92.67417374 16.34078476 -76.7421875 -0.6640625 C-55.84195051 -18.46796808 -21.63372254 -13.74642786 0 0 Z " fill="#06060A" transform="translate(131,11)"/>
<path d="M0 0 C0.68964844 0.47566406 1.37929687 0.95132813 2.08984375 1.44140625 C6.50675113 5.91079174 8.50245277 10.18289953 8.60461426 16.46464539 C8.59651733 17.1998793 8.58842041 17.93511322 8.58007812 18.69262695 C8.5870874 19.48713257 8.59409668 20.28163818 8.60131836 21.10021973 C8.61882542 23.70910306 8.60729869 26.31688815 8.59375 28.92578125 C8.59644782 30.7527029 8.60033266 32.57962315 8.60534668 34.40653992 C8.61123255 38.23039457 8.60271128 42.05387458 8.58398438 45.87768555 C8.56124391 50.75652975 8.57429244 55.63449126 8.59827423 60.5133028 C8.61279851 64.28566513 8.60809516 68.05782179 8.59776306 71.83019066 C8.59511152 73.62775975 8.59830962 75.42534805 8.60768127 77.22289467 C8.6523476 88.20125855 8.15756657 96.70989063 2.3125 106.3125 C-8.85882317 116.8631941 -28.9454855 116.12654603 -43.44873047 117.88452148 C-53.45958329 119.10140585 -63.43259743 120.49737739 -73.40429688 122.00537109 C-82.12381075 123.32370953 -90.85224753 124.54797039 -99.59375 125.7109375 C-103.26634953 126.20178935 -106.93054014 126.73254605 -110.59375 127.2890625 C-139.22917174 131.58166827 -139.22917174 131.58166827 -146.43359375 128.30078125 C-150.17389371 125.33809043 -152.0709399 121.81028051 -153.9375 117.4375 C-154.22690881 114.61744358 -154.36845214 112.02011737 -154.35742188 109.20410156 C-154.36589142 108.3999884 -154.37436096 107.59587524 -154.38308716 106.76739502 C-154.40639968 104.12080872 -154.40748045 101.47480604 -154.40625 98.828125 C-154.41335681 96.97735362 -154.42105657 95.12658444 -154.42932129 93.27581787 C-154.44275421 89.39898557 -154.444341 85.52235684 -154.43847656 81.64550781 C-154.43259219 76.69816694 -154.46312509 71.75181139 -154.50359344 66.8046608 C-154.52955752 62.98169776 -154.53233979 59.15896891 -154.52870178 55.33592987 C-154.53038597 53.51321697 -154.53996044 51.69049244 -154.55784607 49.86786652 C-154.73276938 29.83336705 -154.73276938 29.83336705 -147.26005554 21.58621216 C-140.0601283 14.60991378 -131.14529305 12.83020021 -121.5 11.9375 C-119.28082821 11.70317957 -117.0620857 11.46476416 -114.84375 11.22265625 C-113.70679688 11.09906738 -112.56984375 10.97547852 -111.3984375 10.84814453 C-105.74149293 10.17694103 -100.12406955 9.27650831 -94.5 8.375 C-87.3228846 7.23502138 -80.16821664 6.16868666 -72.9375 5.4375 C-65.6468489 4.69819973 -58.42656604 3.63549846 -51.1875 2.5 C-42.79730511 1.18836167 -34.40785992 -0.11835074 -26 -1.3125 C-24.71561035 -1.50380493 -24.71561035 -1.50380493 -23.40527344 -1.69897461 C-5.67421982 -4.17125948 -5.67421982 -4.17125948 0 0 Z " fill="#50508D" transform="translate(243.9375,115.5625)"/>
<path d="M0 0 C5.28772485 4.0193051 9.40126992 8.39424255 12.98046875 13.98046875 C13.40457031 14.63660156 13.82867187 15.29273437 14.265625 15.96875 C15.41796875 17.85546875 15.41796875 17.85546875 16.98046875 20.98046875 C16.65046875 21.64046875 16.32046875 22.30046875 15.98046875 22.98046875 C15.07296875 22.19671875 14.16546875 21.41296875 13.23046875 20.60546875 C8.94274705 17.05908211 5.57865027 15.58027391 -0.01953125 14.98046875 C-0.84195313 14.86832031 -1.664375 14.75617187 -2.51171875 14.640625 C-13.13290315 13.82028962 -21.81090084 18.65452354 -30.3125 24.578125 C-46.19131745 38.78548798 -49.79193431 64.42049507 -51.18798828 84.39013672 C-51.94190318 94.24867889 -51.94190318 94.24867889 -48.01953125 102.98046875 C-46.23218084 104.32844168 -46.23218084 104.32844168 -44.20703125 105.16796875 C-43.50964844 105.48636719 -42.81226562 105.80476563 -42.09375 106.1328125 C-39.44000507 107.2172996 -36.76514803 108.15678372 -34.01953125 108.98046875 C-36.25566267 111.42312186 -38.53078356 112.90584337 -41.39453125 114.54296875 C-46.81743713 118.20828787 -49.22759737 121.6942454 -51.01953125 127.98046875 C-51.38777315 130.88441832 -51.50486606 133.78297998 -51.609375 136.70703125 C-51.64618881 137.56947449 -51.68300262 138.43191772 -51.72093201 139.32049561 C-52.18656867 150.9518413 -52.37600838 162.59227911 -52.58203125 174.23046875 C-52.62536665 176.54818242 -52.66898484 178.86589082 -52.71289062 181.18359375 C-52.81835237 186.78249575 -52.92036887 192.38145181 -53.01953125 197.98046875 C-58.81724804 195.74891207 -64.25439272 192.88850955 -69.76953125 190.04296875 C-71.36861328 189.23569336 -71.36861328 189.23569336 -73 188.41210938 C-74.01191406 187.88939453 -75.02382812 187.36667969 -76.06640625 186.828125 C-76.99291992 186.35383057 -77.91943359 185.87953613 -78.87402344 185.39086914 C-81.01953125 183.98046875 -81.01953125 183.98046875 -82.01953125 180.98046875 C-80.54296875 178.30859375 -80.54296875 178.30859375 -78.39453125 175.23046875 C-77.29238281 173.6371875 -77.29238281 173.6371875 -76.16796875 172.01171875 C-75.45898438 171.01140625 -74.75 170.01109375 -74.01953125 168.98046875 C-73.20355469 167.8203125 -73.20355469 167.8203125 -72.37109375 166.63671875 C-71.26501464 165.07669965 -70.14431956 163.52705268 -69.01953125 161.98046875 C-75.20610446 167.58705072 -80.29406633 174.52953891 -84.01953125 181.98046875 C-87.64953125 180.99046875 -91.27953125 180.00046875 -95.01953125 178.98046875 C-95.01953125 179.64046875 -95.01953125 180.30046875 -95.01953125 180.98046875 C-94.43179932 181.13539795 -93.84406738 181.29032715 -93.23852539 181.44995117 C-86.28073823 183.39677064 -79.94645016 186.14071954 -73.45703125 189.29296875 C-72.48056641 189.75380859 -71.50410156 190.21464844 -70.49804688 190.68945312 C-56.50451538 197.41945255 -56.50451538 197.41945255 -53.01953125 200.98046875 C-52.72045898 203.6027832 -52.72045898 203.6027832 -53.01953125 205.98046875 C-55.01784216 207.97877966 -58.75656622 207.73769087 -61.5 208.1015625 C-62.26443924 208.20638443 -63.02887848 208.31120636 -63.81648254 208.41920471 C-66.27947799 208.75608593 -68.74321274 209.08716605 -71.20703125 209.41796875 C-72.81841318 209.63697425 -74.429742 209.85637091 -76.04101562 210.07617188 C-78.42282772 210.40104312 -80.80468787 210.72550503 -83.18682861 211.04795837 C-89.16083997 211.85749918 -95.12822907 212.70632188 -101.09350586 213.578125 C-112.06043014 215.08613428 -112.06043014 215.08613428 -116.234375 212.73046875 C-122.07224272 208.03408355 -126.65227428 201.43946469 -128.01953125 193.98046875 C-130.24948216 168.62274127 -115.7602919 144.1529164 -99.9921875 125.25 C-99.34121094 124.50105469 -98.69023438 123.75210938 -98.01953125 122.98046875 C-97.33761719 122.17996094 -96.65570313 121.37945312 -95.953125 120.5546875 C-90.9552304 115.06364201 -90.9552304 115.06364201 -87.20703125 114.73046875 C-86.15515625 115.14296875 -85.10328125 115.55546875 -84.01953125 115.98046875 C-82.14491549 116.6482151 -80.26987946 117.31478223 -78.39453125 117.98046875 C-77.47414062 118.33109375 -76.55375 118.68171875 -75.60546875 119.04296875 C-73.41601237 119.83672937 -71.28829337 120.46919841 -69.01953125 120.98046875 C-69.01953125 119.99046875 -69.01953125 119.00046875 -69.01953125 117.98046875 C-69.92703125 118.10421875 -70.83453125 118.22796875 -71.76953125 118.35546875 C-78.42657135 118.34191062 -85.15305986 114.48931895 -90.0546875 110.19921875 C-97.52913992 101.82489367 -96.78464214 92.13384731 -96.25341797 81.46777344 C-95.73899249 75.99703567 -93.72399855 71.68585457 -91.01953125 66.98046875 C-90.33775056 65.75043816 -89.65681007 64.51994162 -88.9765625 63.2890625 C-87.61026681 60.8448491 -86.21558109 58.42123706 -84.7890625 56.01171875 C-83.43680081 53.69526163 -82.17502716 51.39812172 -81.01953125 48.98046875 C-81.67953125 48.98046875 -82.33953125 48.98046875 -83.01953125 48.98046875 C-83.24640625 49.64046875 -83.47328125 50.30046875 -83.70703125 50.98046875 C-85.41652848 54.887891 -87.54422061 58.50468413 -90.01953125 61.98046875 C-90.34953125 61.98046875 -90.67953125 61.98046875 -91.01953125 61.98046875 C-91.40035845 14.06068933 -91.40035845 14.06068933 -76.83203125 -1.83203125 C-55.67255484 -21.30623962 -21.7818958 -14.56822785 0 0 Z " fill="#C3C3FC" transform="translate(132.01953125,15.01953125)"/>
<path d="M0 0 C1.051875 0.4125 2.10375 0.825 3.1875 1.25 C5.06211576 1.91774635 6.93715179 2.58431348 8.8125 3.25 C9.73289063 3.600625 10.65328125 3.95125 11.6015625 4.3125 C13.79101888 5.10626062 15.91873788 5.73872966 18.1875 6.25 C18.5175 5.59 18.8475 4.93 19.1875 4.25 C25.7875 4.58 32.3875 4.91 39.1875 5.25 C38.1975 7.89 37.2075 10.53 36.1875 13.25 C35.83751884 16.26174851 35.61318311 19.09516979 35.53515625 22.109375 C35.48670311 23.38865875 35.48670311 23.38865875 35.43727112 24.69378662 C35.3361524 27.5456114 35.25901116 30.39728456 35.1875 33.25 C35.16032898 34.27488525 35.13315796 35.29977051 35.10516357 36.35571289 C34.9070295 44.0698506 34.761581 51.7845674 34.625 59.5 C34.5816646 61.81771367 34.53804641 64.13542207 34.49414062 66.453125 C34.38867888 72.052027 34.28666238 77.65098306 34.1875 83.25 C28.38978321 81.01844332 22.95263853 78.1580408 17.4375 75.3125 C16.37144531 74.77431641 15.30539063 74.23613281 14.20703125 73.68164062 C13.19511719 73.15892578 12.18320312 72.63621094 11.140625 72.09765625 C10.21411133 71.62336182 9.28759766 71.14906738 8.33300781 70.66040039 C6.1875 69.25 6.1875 69.25 5.1875 66.25 C6.6640625 63.578125 6.6640625 63.578125 8.8125 60.5 C9.91464844 58.90671875 9.91464844 58.90671875 11.0390625 57.28125 C11.74804688 56.2809375 12.45703125 55.280625 13.1875 54.25 C14.00347656 53.08984375 14.00347656 53.08984375 14.8359375 51.90625 C15.94201661 50.3462309 17.06271169 48.79658393 18.1875 47.25 C12.00092679 52.85658197 6.91296492 59.79907016 3.1875 67.25 C-0.4425 66.26 -4.0725 65.27 -7.8125 64.25 C-7.8125 64.91 -7.8125 65.57 -7.8125 66.25 C-7.22476807 66.4049292 -6.63703613 66.5598584 -6.03149414 66.71948242 C0.92629302 68.66630189 7.26058109 71.41025079 13.75 74.5625 C14.72646484 75.02333984 15.70292969 75.48417969 16.70898438 75.95898438 C30.70251587 82.6889838 30.70251587 82.6889838 34.1875 86.25 C34.48657227 88.87231445 34.48657227 88.87231445 34.1875 91.25 C32.18918909 93.24831091 28.45046503 93.00722212 25.70703125 93.37109375 C24.94259201 93.47591568 24.17815277 93.58073761 23.39054871 93.68873596 C20.92755326 94.02561718 18.46381851 94.3566973 16 94.6875 C14.38861807 94.9065055 12.77728925 95.12590216 11.16601562 95.34570312 C8.78420353 95.67057437 6.40234338 95.99503628 4.02020264 96.31748962 C-1.95380872 97.12703043 -7.92119782 97.97585313 -13.88647461 98.84765625 C-24.85339889 100.35566553 -24.85339889 100.35566553 -29.02734375 98 C-34.86521147 93.3036148 -39.44524303 86.70899594 -40.8125 79.25 C-43.04245091 53.89227252 -28.55326065 29.42244765 -12.78515625 10.51953125 C-12.13417969 9.77058594 -11.48320313 9.02164063 -10.8125 8.25 C-10.13058594 7.44949219 -9.44867188 6.64898437 -8.74609375 5.82421875 C-3.74819915 0.33317326 -3.74819915 0.33317326 0 0 Z " fill="#A2A2F4" transform="translate(44.8125,129.75)"/>
<path d="M0 0 C3.625 0.75 3.625 0.75 5.5234375 2.9921875 C7.36081246 5.85291054 9.02380935 8.75140659 10.625 11.75 C11.223125 12.801875 11.82125 13.85375 12.4375 14.9375 C17.07866141 25.9297244 17.56776672 39.47046606 13.6875 50.75 C9.49500786 60.11796972 3.17523548 66.96283765 -6.375 70.75 C-10.07445999 71.98315333 -13.52267558 71.93407267 -17.375 71.9375 C-18.46167969 71.95586914 -18.46167969 71.95586914 -19.5703125 71.97460938 C-23.38200298 71.98515833 -25.1286304 71.9142464 -28.375 69.75 C-26.15565836 73.07901247 -25.02816671 73.50023244 -21.375 74.75 C-21.375 77.39 -21.375 80.03 -21.375 82.75 C-20.22 82.853125 -19.065 82.95625 -17.875 83.0625 C-13.38443565 83.62481053 -9.52412917 84.9930129 -5.375 86.75 C-4.35599609 87.17732422 -4.35599609 87.17732422 -3.31640625 87.61328125 C-1.66457512 88.31456167 -0.01907243 89.03071831 1.625 89.75 C1.625 90.08 1.625 90.41 1.625 90.75 C-1.39482884 91.25682442 -4.41562817 91.75563335 -7.4375 92.25 C-8.28505859 92.39308594 -9.13261719 92.53617187 -10.00585938 92.68359375 C-21.30910954 94.51655324 -30.55286905 93.39140406 -40.61328125 87.421875 C-43.51701728 84.78841511 -44.25651865 82.46356061 -44.89453125 78.62109375 C-45.46932555 65.8018442 -42.29420805 53.15114698 -39.375 40.75 C-39.20452148 40.02522461 -39.03404297 39.30044922 -38.85839844 38.55371094 C-35.3971588 24.45154774 -28.27343671 12.74948853 -15.6875 5.12109375 C-10.47374963 2.39784021 -5.69828129 1.26628473 0 0 Z " fill="#FDE9D1" transform="translate(126.375,30.25)"/>
<path d="M0 0 C0 0.33 0 0.66 0 1 C-0.9460183 1.12488297 -0.9460183 1.12488297 -1.91114807 1.25228882 C-8.54747018 2.12836282 -15.18377422 3.00457354 -21.82006836 3.88085938 C-24.2881628 4.20673994 -26.75626166 4.53258704 -29.22436523 4.85839844 C-55.87000163 8.37113178 -55.87000163 8.37113178 -82.5 12 C-90.05928668 13.04780766 -97.6183167 14.0887348 -105.1875 15.0625 C-112.84724566 16.07178413 -120.46307495 17.34815007 -128.07299805 18.67797852 C-129.81107475 18.96842868 -131.55775166 19.20622717 -133.3046875 19.4375 C-138.37314758 20.49526558 -141.34932581 23.82495173 -144.40856934 27.85603333 C-149.47467196 36.4735119 -148.6876503 45.65310072 -148.59375 55.32421875 C-148.59203624 57.19887719 -148.59210728 59.07353802 -148.59387207 60.94819641 C-148.59222542 64.86096382 -148.57364384 68.77315371 -148.54199219 72.68579102 C-148.50223422 77.68917881 -148.49796072 82.69181473 -148.50545502 87.69533062 C-148.50853021 91.56021455 -148.496386 95.4249309 -148.47932434 99.28977394 C-148.47231884 101.13446819 -148.46916682 102.97918142 -148.47001648 104.82388878 C-148.46821001 107.40336589 -148.44675891 109.98195643 -148.41992188 112.5612793 C-148.42285248 113.31521469 -148.42578308 114.06915009 -148.42880249 114.84593201 C-148.33642067 120.62803416 -147.20665253 125.48241007 -143.28125 129.9609375 C-142.6934375 130.42757812 -142.105625 130.89421875 -141.5 131.375 C-140.9121875 131.85710937 -140.324375 132.33921875 -139.71875 132.8359375 C-133.32677453 137.16504816 -124.18692039 134.8691601 -117.0625 133.6875 C-109.53614358 132.47360164 -102.00705808 131.51013312 -94.4296875 130.6796875 C-79.73677806 129.02398934 -65.09213208 127.04936702 -50.44458008 125.03833008 C-46.75430964 124.53170305 -43.06341453 124.02979488 -39.37232304 123.52918911 C-36.47305232 123.13547338 -33.57411057 122.73937716 -30.67526054 122.34257698 C-28.66438353 122.06771456 -26.65324841 121.79474246 -24.6421051 121.52183533 C-18.18276215 120.63201701 -11.77482061 119.6500377 -5.3813324 118.36512756 C-2.88540637 117.98242946 -0.52112052 117.93741433 2 118 C1.9375 120.3125 1.9375 120.3125 1 123 C-4.60256287 125.99706992 -10.19618101 126.92016157 -16.4375 127.8125 C-17.521521 127.97355225 -18.60554199 128.13460449 -19.72241211 128.30053711 C-39.76777882 131.20214053 -59.89562575 133.55051799 -80 136 C-81.39795622 136.17084116 -82.79590624 136.34173304 -84.19384766 136.51269531 C-89.30228343 137.13620738 -94.41135583 137.75087589 -99.5234375 138.34375 C-103.39056343 138.79526308 -107.24553288 139.30586839 -111.1015625 139.84375 C-149.19319516 144.99753089 -189.65609864 142.2565685 -227 133 C-228 132 -228 132 -228.09765625 129.93359375 C-228.08605469 129.10988281 -228.07445312 128.28617188 -228.0625 127.4375 C-228.05347656 126.61121094 -228.04445312 125.78492188 -228.03515625 124.93359375 C-228.02355469 124.29550781 -228.01195312 123.65742188 -228 123 C-214.9474519 124.49467174 -201.93252082 126.12737978 -188.9375 128.0625 C-176.32541045 129.9286104 -163.71576076 131.12022088 -151 132 C-151.35486481 131.5215715 -151.70972961 131.04314301 -152.0753479 130.55021667 C-156.78920454 123.34497451 -156.66791604 116.61533286 -156.5234375 108.23828125 C-156.51662245 106.8017 -156.51191576 105.36510739 -156.50918579 103.92851257 C-156.49583663 100.15381656 -156.45172767 96.38007452 -156.40161133 92.60571289 C-156.35792128 88.84075343 -156.34719188 85.07570823 -156.33203125 81.31054688 C-156.28968571 72.87221698 -156.16908495 64.43669609 -156 56 C-155.97715942 54.84643005 -155.95431885 53.69286011 -155.93078613 52.5043335 C-155.86120954 49.474553 -155.7691448 46.44670228 -155.6640625 43.41796875 C-155.64306488 42.57591385 -155.62206726 41.73385895 -155.60043335 40.86628723 C-155.30436282 33.9476447 -154.09633816 26.16921153 -148.875 21.1875 C-148.35679687 20.66542969 -147.83859375 20.14335937 -147.3046875 19.60546875 C-139.92107864 14.46197173 -132.43190013 13.19784996 -123.59155273 12.27490234 C-120.03799438 11.90291392 -116.49017362 11.48123292 -112.94140625 11.06640625 C-112.20451569 10.98149933 -111.46762512 10.89659241 -110.70840454 10.80911255 C-102.77863899 9.88377005 -94.89238586 8.69743641 -87 7.5 C-74.43463078 5.60643999 -61.85589248 3.91934212 -49.24145508 2.38769531 C-43.3187707 1.66727349 -37.40227527 0.93215815 -31.49609375 0.0859375 C-30.00964355 -0.12651611 -30.00964355 -0.12651611 -28.49316406 -0.34326172 C-26.71417792 -0.60116208 -24.93604579 -0.86508366 -23.15917969 -1.13720703 C-15.3072744 -2.27421409 -7.387662 -3.35418268 0 0 Z " fill="#3C3C76" transform="translate(237,112)"/>
<path d="M0 0 C5.8545501 4.17604351 9.7404256 10.60766239 11.26171875 17.61328125 C11.71319653 22.22838741 11.72684592 26.27262059 10.19921875 30.67578125 C9.20357324 33.79547051 9.39160154 35.03660287 9.94921875 38.17578125 C10.5172997 42.26185745 10.5172997 42.26185745 8.26171875 45.36328125 C6.71183041 46.5256975 5.15171847 47.6818783 3.5078125 48.70703125 C-1.17144906 51.6985246 -2.946335 54.37645097 -4.81640625 59.625 C-5.73828125 61.61328125 -5.73828125 61.61328125 -8.73828125 63.61328125 C-8.73828125 61.63328125 -8.73828125 59.65328125 -8.73828125 57.61328125 C-9.39828125 57.61328125 -10.05828125 57.61328125 -10.73828125 57.61328125 C-10.73828125 59.92328125 -10.73828125 62.23328125 -10.73828125 64.61328125 C-12.71828125 64.61328125 -14.69828125 64.61328125 -16.73828125 64.61328125 C-16.73828125 62.30328125 -16.73828125 59.99328125 -16.73828125 57.61328125 C-17.39828125 57.61328125 -18.05828125 57.61328125 -18.73828125 57.61328125 C-18.73828125 60.25328125 -18.73828125 62.89328125 -18.73828125 65.61328125 C-21.04828125 65.61328125 -23.35828125 65.61328125 -25.73828125 65.61328125 C-26.40983058 64.32414638 -27.07536984 63.03187921 -27.73828125 61.73828125 C-28.10953125 61.01898438 -28.48078125 60.2996875 -28.86328125 59.55859375 C-29.73828125 57.61328125 -29.73828125 57.61328125 -29.73828125 55.61328125 C-30.79015625 55.51015625 -31.84203125 55.40703125 -32.92578125 55.30078125 C-36.61258879 54.6359471 -38.70466724 53.72761829 -41.73828125 51.61328125 C-40.80223474 46.79932776 -40.80223474 46.79932776 -40.05078125 44.61328125 C-39.5411728 42.53119256 -39.5411728 42.53119256 -40.6953125 40.44140625 C-43.21085212 33.62024264 -42.8770632 24.22682456 -39.98828125 17.55078125 C-39.27085713 16.22019533 -38.5236634 14.90492018 -37.73828125 13.61328125 C-37.18140625 12.60265625 -36.62453125 11.59203125 -36.05078125 10.55078125 C-26.57761813 -1.48269623 -14.32898606 -7.98554168 0 0 Z " fill="#F6EFF1" transform="translate(196.73828125,144.38671875)"/>
<path d="M0 0 C6.08858062 0.73800977 10.9772996 3.6647996 15.25 7.9375 C22.02656634 16.66903087 21.44916968 29.31080201 21.3125 39.8125 C21.31572266 41.06998047 21.31894531 42.32746094 21.32226562 43.62304688 C21.23805955 58.1600777 17.40143622 70.36639805 8.2578125 81.84375 C5.39843921 84.57450096 2.88126837 86.94164625 -1 88 C-4.28100136 87.52511822 -7.0695602 86.26288535 -10.0625 84.875 C-11.61549651 84.20482723 -13.16887436 83.53553737 -14.72265625 82.8671875 C-15.4511377 82.54331055 -16.17961914 82.21943359 -16.93017578 81.88574219 C-19.56950527 80.75629098 -22.25945864 79.85066404 -25 79 C-25 77.02 -25 75.04 -25 73 C-24.02160156 72.86464844 -23.04320313 72.72929688 -22.03515625 72.58984375 C-13.37997185 71.23294774 -7.33479311 69.42795184 -1 63 C-0.42765625 62.42894531 0.1446875 61.85789063 0.734375 61.26953125 C9.129822 52.18831754 11.53864508 41.52546759 11.3125 29.3984375 C10.38009659 19.2585504 6.11729415 10.64429073 1 2 C0.67 1.34 0.34 0.68 0 0 Z " fill="#A2A2F3" transform="translate(133,32)"/>
<path d="M0 0 C3.625 0.75 3.625 0.75 5.62890625 3.203125 C7.40609312 6.00354067 9.06272393 8.82488735 10.625 11.75 C7.52991694 13.81338871 5.18858627 14.5234403 1.625 15.5 C-12.22783062 19.69736155 -24.15908243 27.3079936 -31.19140625 40.296875 C-37.84812207 54.09363254 -35.85947302 67.57666554 -31.375 81.75 C-30.84339723 83.01766814 -30.29806366 84.27967719 -29.73828125 85.53515625 C-28.375 88.75 -28.375 88.75 -28.375 91.75 C-34.24692695 90.53151714 -39.71784752 89.21590158 -43.37109375 84.16796875 C-48.66399049 71.41970773 -42.35961745 53.42901397 -39.375 40.75 C-39.20452148 40.02522461 -39.03404297 39.30044922 -38.85839844 38.55371094 C-35.3971588 24.45154774 -28.27343671 12.74948853 -15.6875 5.12109375 C-10.47374963 2.39784021 -5.69828129 1.26628473 0 0 Z " fill="#FAD2B4" transform="translate(126.375,30.25)"/>
<path d="M0 0 C1.8253125 0.0309375 1.8253125 0.0309375 3.6875 0.0625 C3.74808594 0.87074219 3.80867188 1.67898437 3.87109375 2.51171875 C3.95488281 3.58035156 4.03867188 4.64898437 4.125 5.75 C4.20621094 6.80574219 4.28742188 7.86148438 4.37109375 8.94921875 C4.65201681 11.71336297 5.08906852 14.35195741 5.6875 17.0625 C-5.9814189 17.61718453 -17.22663511 16.12168506 -28.76171875 14.54638672 C-32.68362366 14.01192471 -36.60721012 13.49115602 -40.53125 12.97265625 C-47.79291407 12.01180946 -55.05307445 11.04013251 -62.3125 10.0625 C-62.3125 9.4025 -62.3125 8.7425 -62.3125 8.0625 C-47.15960899 5.93973306 -32.00815046 3.84281093 -16.81640625 2.0144043 C-15.89730469 1.90265869 -14.97820313 1.79091309 -14.03125 1.67578125 C-13.23654297 1.58079346 -12.44183594 1.48580566 -11.62304688 1.38793945 C-9.95976415 1.15366685 -8.30440657 0.86041782 -6.6574707 0.53027344 C-4.36540251 0.07305296 -2.3312417 -0.03951257 0 0 Z " fill="#4F4F8A" transform="translate(75.3125,223.9375)"/>
<path d="M0 0 C7.22667918 4.10633135 11.87842654 10.22144139 14.3125 18.1875 C15.10210621 25.13603465 14.78246671 31.46299962 12.96484375 38.22265625 C12.85269531 38.78855469 12.74054688 39.35445312 12.625 39.9375 C12.955 40.2675 13.285 40.5975 13.625 40.9375 C14.18958522 44.98369408 13.84070284 46.61067751 11.5625 50.0625 C9.43533567 52.41325831 8.02852609 53.24096918 5.0625 54.75 C1.01443873 56.82211776 0.16709186 59.71889045 -1.421875 63.8125 C-2.79891703 66.88262649 -4.47965967 68.28301981 -7.375 69.9375 C-12.73587316 71.46917805 -18.84302181 71.55216424 -24.375 70.9375 C-28.28897956 68.45546418 -29.18118721 65.31481357 -30.375 60.9375 C-31.24125 60.855 -32.1075 60.7725 -33 60.6875 C-36.85234858 59.83142254 -39.223219 58.26381454 -42.375 55.9375 C-42.1275 54.32875 -42.1275 54.32875 -41.875 52.6875 C-41.34366516 48.70248869 -41.09642126 45.77323621 -42.375 41.9375 C-43.18068625 28.14786995 -41.89798702 17.68411105 -32.375 6.9375 C-22.80368244 -1.15556414 -12.13596159 -5.58144073 0 0 Z M-34.375 12.9375 C-38.43252287 19.74041148 -40.52338114 25.34789994 -40.5625 33.3125 C-40.57667969 34.61960938 -40.59085938 35.92671875 -40.60546875 37.2734375 C-40.38985575 40.70131881 -39.76621369 42.85214706 -38.375 45.9375 C-38.6875 47.9375 -38.6875 47.9375 -39.375 49.9375 C-39.71560811 51.60269519 -40.05058396 53.26907466 -40.375 54.9375 C-39.13039217 55.61417998 -37.87903104 56.27844719 -36.625 56.9375 C-35.92890625 57.30875 -35.2328125 57.68 -34.515625 58.0625 C-32.14332243 59.18974649 -32.14332243 59.18974649 -28.375 58.9375 C-28.17003906 59.57558594 -27.96507812 60.21367187 -27.75390625 60.87109375 C-27.48449219 61.69738281 -27.21507812 62.52367187 -26.9375 63.375 C-26.67066406 64.19871094 -26.40382812 65.02242188 -26.12890625 65.87109375 C-25.55344506 67.89969588 -25.55344506 67.89969588 -24.375 68.9375 C-22.04202567 68.97842937 -19.70794775 68.97991723 -17.375 68.9375 C-17.375 66.2975 -17.375 63.6575 -17.375 60.9375 C-16.715 60.9375 -16.055 60.9375 -15.375 60.9375 C-15.375 63.2475 -15.375 65.5575 -15.375 67.9375 C-13.395 67.9375 -11.415 67.9375 -9.375 67.9375 C-9.375 65.6275 -9.375 63.3175 -9.375 60.9375 C-8.715 60.9375 -8.055 60.9375 -7.375 60.9375 C-7.375 62.9175 -7.375 64.8975 -7.375 66.9375 C-3.94448603 65.09972466 -3.00614479 63.19872377 -1.75 59.6875 C0.34286973 54.45956226 3.68957223 52.4528888 8.48046875 49.73828125 C10.90540326 48.0486033 10.90540326 48.0486033 11.4609375 44.88671875 C11.75678667 41.99136516 11.75678667 41.99136516 11.0625 39.4375 C10.625 36.9375 10.625 36.9375 11.5625 34.25 C13.94545011 26.8208026 12.9906571 20.22717954 9.80859375 13.19140625 C6.09535808 6.1203271 1.05844575 2.49851197 -6.375 -0.0625 C-17.80597981 -2.26008371 -27.55006763 4.17125354 -34.375 12.9375 Z " fill="#100F14" transform="translate(195.375,141.0625)"/>
<path d="M0 0 C-1 2 -1 2 -2.71484375 2.640625 C-3.81505859 2.94226562 -3.81505859 2.94226562 -4.9375 3.25 C-16.885036 7.06789306 -24.42676777 14.0548734 -30.5625 24.8125 C-37.54566525 39.26749444 -41.04382809 57.98332195 -41.375 74 C-41.41238281 74.68578125 -41.44976562 75.3715625 -41.48828125 76.078125 C-41.5553963 79.98571233 -41.00282488 81.99552025 -38.90625 85.3203125 C-35.70877138 88.26852531 -33.2322011 89.49994143 -29.125 90.875 C-27.95195313 91.28492187 -26.77890625 91.69484375 -25.5703125 92.1171875 C-18.45598996 93.87630883 -11.64751647 92.65757453 -4.52148438 91.62304688 C0.79339378 90.89669689 0.79339378 90.89669689 3 92 C3 92.66 3 93.32 3 94 C1.89712646 94.09704224 1.89712646 94.09704224 0.77197266 94.19604492 C-2.61261338 94.50578905 -5.99343329 94.84642504 -9.375 95.1875 C-10.53128906 95.28869141 -11.68757813 95.38988281 -12.87890625 95.49414062 C-22.92155297 96.54379579 -31.16421468 99.07753245 -37.84375 106.9609375 C-41.4713072 113.35818364 -41.40116727 120.27018958 -41.625 127.4375 C-41.66367188 128.45521484 -41.70234375 129.47292969 -41.7421875 130.52148438 C-41.83580872 133.01414936 -41.92153993 135.5068195 -42 138 C-42.33 138 -42.66 138 -43 138 C-43.31693405 134.0439758 -43.56993066 130.08622409 -43.8125 126.125 C-43.90208984 125.01640625 -43.99167969 123.9078125 -44.08398438 122.765625 C-44.51442723 115.06296337 -43.59393076 109.34549797 -39 103 C-35.34537319 99.59107319 -31.49173699 97.16083561 -27 95 C-27.99580078 94.63648437 -27.99580078 94.63648437 -29.01171875 94.265625 C-39.96973433 90.10637821 -39.96973433 90.10637821 -43.10546875 85.30859375 C-49.4415329 68.95656792 -41.2177067 41.24563817 -34.66015625 25.85546875 C-29.27376576 15.18713301 -21.65352948 7.36204133 -11 2 C-9.98679687 1.4740625 -9.98679687 1.4740625 -8.953125 0.9375 C-5.67729481 -0.63041872 -3.43210759 -1.51012734 0 0 Z " fill="#14141C" transform="translate(124,30)"/>
<path d="M0 0 C0.66 0 1.32 0 2 0 C6.03262374 11.97785267 6.60363805 24.05675395 2 36 C-2.220987 43.88146353 -10.16134914 53.88978774 -19.05078125 56.6328125 C-23.44843013 57.58981381 -27.46774147 58.23242351 -32 58 C-31.67 59.98 -31.34 61.96 -31 64 C-30.154375 64.25394531 -29.30875 64.50789063 -28.4375 64.76953125 C-22.20564202 66.66033362 -16.06325995 68.622251 -10 71 C-11.64453125 72.10546875 -11.64453125 72.10546875 -14 73 C-16.69921875 72.42578125 -16.69921875 72.42578125 -19.6875 71.3125 C-20.73808594 70.93222656 -21.78867188 70.55195312 -22.87109375 70.16015625 C-23.90363281 69.77730469 -24.93617187 69.39445312 -26 69 C-27.74753359 68.40931894 -29.49724209 67.82499348 -31.25 67.25 C-32.4875 66.8375 -33.725 66.425 -35 66 C-35 63.36 -35 60.72 -35 58 C-35.969375 57.731875 -36.93875 57.46375 -37.9375 57.1875 C-38.948125 56.795625 -39.95875 56.40375 -41 56 C-41.495 54.515 -41.495 54.515 -42 53 C-41.01 53.33 -40.02 53.66 -39 54 C-27.47181574 54.79013398 -19.10475914 54.20289466 -9.75 46.875 C-5.48455593 42.92394125 -3.13453738 38.35289024 -1 33 C-0.63003906 32.08992188 -0.26007813 31.17984375 0.12109375 30.2421875 C1.23258583 26.1420167 1.25804857 22.41247774 1.1875 18.1875 C1.17783203 16.99471436 1.17783203 16.99471436 1.16796875 15.77783203 C1.09825482 10.46105577 0.77998484 5.26489768 0 0 Z " fill="#201E23" transform="translate(140,47)"/>
<path d="M0 0 C3.375 1.125 3.375 1.125 5.3125 2.625 C6.94565856 6.46772602 7.04277609 10.01888744 6.375 14.125 C5.12797583 16.83250292 3.49480716 19.00519284 1.375 21.125 C-4.00797872 21.59308511 -4.00797872 21.59308511 -6.4375 19.75 C-9.4848826 15.5798975 -9.28748002 11.11263693 -8.625 6.125 C-6.79907031 1.87541475 -4.75445146 0.1639466 0 0 Z " fill="#4E4E89" transform="translate(173.625,161.875)"/>
<path d="M0 0 C3.64840051 0.77625543 4.86657224 1.51860836 6.9375 4.625 C7.61141881 9.82380225 6.71189971 13.20651158 3.9375 17.625 C0.9375 19.625 0.9375 19.625 -2.0625 19.5625 C-5.0625 18.625 -5.0625 18.625 -6.9375 16.5 C-8.36577288 12.8499693 -8.60908488 10.51941724 -8.0625 6.625 C-6.17602093 2.94878437 -4.1668787 0.85038341 0 0 Z " fill="#26262C" transform="translate(192.0625,161.375)"/>
<path d="M0 0 C0 0.66 0 1.32 0 2 C-1.19625 2.495 -2.3925 2.99 -3.625 3.5 C-9.19918786 6.27721062 -12.32508711 10.63162427 -15.05673218 16.12516785 C-16.26226468 19.79931375 -16.30781348 23.27020156 -16.31884766 27.0949707 C-16.32889328 27.89549362 -16.3389389 28.69601654 -16.34928894 29.52079773 C-16.38007659 32.15578522 -16.39714371 34.79067129 -16.4140625 37.42578125 C-16.43277771 39.25710418 -16.45235139 41.08841853 -16.4727478 42.91972351 C-16.52403772 47.73156669 -16.56368028 52.54343781 -16.60089111 57.35540771 C-16.64095042 62.26890967 -16.69203399 67.18229567 -16.7421875 72.09570312 C-16.83890962 81.73038726 -16.92332633 91.36513692 -17 101 C-17.66 101 -18.32 101 -19 101 C-19.11618907 90.35096903 -19.20486466 79.70209051 -19.25906086 69.05255318 C-19.28508117 64.10674671 -19.32034002 59.16137603 -19.37719727 54.21582031 C-19.43178817 49.43713004 -19.46147736 44.65885719 -19.47438622 39.879879 C-19.48357772 38.06270661 -19.50152622 36.24555536 -19.52865028 34.42856216 C-19.68917907 23.22262475 -19.59106436 14.37683557 -11.83203125 5.52734375 C-11.16558594 5.00269531 -10.49914062 4.47804687 -9.8125 3.9375 C-9.13832031 3.38964844 -8.46414062 2.84179688 -7.76953125 2.27734375 C-4.76192673 0.10629148 -3.96411558 0 0 0 Z " fill="#020205" transform="translate(107,130)"/>
<path d="M0 0 C-1 2 -1 2 -2.71484375 2.640625 C-3.81505859 2.94226562 -3.81505859 2.94226562 -4.9375 3.25 C-16.885036 7.06789306 -24.42676777 14.0548734 -30.5625 24.8125 C-36.68072094 37.47707923 -38.75503753 52.20695057 -41 66 C-44.50714343 60.73928485 -42.75029398 54.7928247 -41.56591797 48.80566406 C-38.02159462 32.53384273 -32.53386592 16.31922029 -18.44921875 6.16015625 C-16.01185981 4.64744031 -13.56157716 3.28927062 -11 2 C-9.98679687 1.4740625 -9.98679687 1.4740625 -8.953125 0.9375 C-5.67729481 -0.63041872 -3.43210759 -1.51012734 0 0 Z " fill="#242125" transform="translate(124,30)"/>
<path d="M0 0 C0.66 0 1.32 0 2 0 C0.71204617 2.68600813 -0.69702707 5.14703232 -2.3828125 7.6015625 C-2.82753906 8.25640625 -3.27226563 8.91125 -3.73046875 9.5859375 C-4.66628695 10.95427672 -5.60381023 12.32145125 -6.54296875 13.6875 C-9.09738679 17.04176974 -9.09738679 17.04176974 -10 21 C-9.42032471 21.28721924 -8.84064941 21.57443848 -8.2434082 21.87036133 C-5.59870611 23.18227102 -2.9555945 24.49735471 -0.3125 25.8125 C0.59951172 26.26431641 1.51152344 26.71613281 2.45117188 27.18164062 C6.73102711 29.31378669 10.95596089 31.43735627 15 34 C14.67 34.99 14.34 35.98 14 37 C13.38181396 36.66790527 12.76362793 36.33581055 12.12670898 35.99365234 C0.30786141 29.66906068 -11.37099985 23.54883418 -24 19 C-24 18.34 -24 17.68 -24 17 C-22.54096742 17.30921884 -21.08279278 17.62248799 -19.625 17.9375 C-18.40683594 18.19853516 -18.40683594 18.19853516 -17.1640625 18.46484375 C-15 19 -15 19 -13 20 C-12.77441406 19.15050781 -12.54882812 18.30101562 -12.31640625 17.42578125 C-10.76217122 13.38108061 -8.63391792 10.53227866 -5.9375 7.1875 C-5.47794922 6.60291016 -5.01839844 6.01832031 -4.54492188 5.41601562 C-1.28549966 1.28549966 -1.28549966 1.28549966 0 0 Z " fill="#151521" transform="translate(61,177)"/>
<path d="M0 0 C1.8125 0.1875 1.8125 0.1875 4 1 C6.92900057 4.66125071 7.32215416 7.3824571 7 12 C3.37653234 13.01457095 -0.26341315 13.57699017 -4 14 C-4.33 13.67 -4.66 13.34 -5 13 C-4.66992568 7.38873664 -3.29199828 4.3539332 0 0 Z " fill="#201F23" transform="translate(180,181)"/>
<path d="M0 0 C3.375 1.125 3.375 1.125 5.3125 2.625 C6.94565856 6.46772602 7.04277609 10.01888744 6.375 14.125 C5.12797583 16.83250292 3.49480716 19.00519284 1.375 21.125 C-4.00797872 21.59308511 -4.00797872 21.59308511 -6.4375 19.75 C-9.4848826 15.5798975 -9.28748002 11.11263693 -8.625 6.125 C-6.79907031 1.87541475 -4.75445146 0.1639466 0 0 Z M-4.3203125 3.31640625 C-5.97160034 5.60546693 -6.22224096 7.26386729 -6.5 10.0625 C-6.60054687 10.91714844 -6.70109375 11.77179688 -6.8046875 12.65234375 C-6.58573362 15.66533955 -5.6105198 16.90800768 -3.625 19.125 C-0.32366765 18.8573244 1.00003298 18.5646165 3.1875 16 C4.65964312 12.43586402 4.79236625 9.95085728 4.375 6.125 C3.28713816 3.64364773 3.28713816 3.64364773 1.375 2.125 C-2.42490223 1.74168025 -2.42490223 1.74168025 -4.3203125 3.31640625 Z " fill="#151418" transform="translate(173.625,161.875)"/>
<path d="M0 0 C2.375 0.75 2.375 0.75 3.375 1.75 C3.54296875 3.7109375 3.54296875 3.7109375 3.5625 6.125 C3.57667969 6.91648438 3.59085938 7.70796875 3.60546875 8.5234375 C3.375 10.75 3.375 10.75 1.375 13.75 C-1.75 13.9375 -1.75 13.9375 -4.625 13.75 C-5.78843227 11.42313547 -5.82395988 9.90278587 -5.875 7.3125 C-5.91367188 6.13880859 -5.91367188 6.13880859 -5.953125 4.94140625 C-5.625 2.75 -5.625 2.75 -4.2734375 0.94921875 C-2.625 -0.25 -2.625 -0.25 0 0 Z " fill="#50508C" transform="translate(192.625,164.25)"/>
<path d="M0 0 C5.3804321 1.13272255 9.35236058 3.19387809 14 6 C15.32646156 6.6802367 16.65608877 7.35492261 18 8 C18 8.66 18 9.32 18 10 C17.01 10.33 16.02 10.66 15 11 C13.54873687 9.77961964 12.1015641 8.55323637 10.6953125 7.28125 C7.9910986 5.23751231 5.28384301 4.72244546 2 4 C2.42152344 4.67546875 2.84304687 5.3509375 3.27734375 6.046875 C4.09912109 7.38492188 4.09912109 7.38492188 4.9375 8.75 C5.48277344 9.63171875 6.02804688 10.5134375 6.58984375 11.421875 C7.82715712 13.68399917 8.53590513 15.48566325 9 18 C8.34 18.33 7.68 18.66 7 19 C6.51789063 18.09636719 6.03578125 17.19273438 5.5390625 16.26171875 C4.90112135 15.07026983 4.2630961 13.87886594 3.625 12.6875 C3.30789062 12.09259766 2.99078125 11.49769531 2.6640625 10.88476562 C1.20613651 8.16634112 -0.28711703 5.56932446 -2 3 C-4.19454681 2.42006301 -4.19454681 2.42006301 -6.625 2.3125 C-7.44226563 2.24675781 -8.25953125 2.18101563 -9.1015625 2.11328125 C-9.72804688 2.07589844 -10.35453125 2.03851562 -11 2 C-7.25041683 -0.49972211 -4.33307665 -0.38445042 0 0 Z " fill="#191619" transform="translate(132,29)"/>
<path d="M0 0 C0 0.33 0 0.66 0 1 C-4.19467823 1.5549965 -8.38983896 2.10615763 -12.58544922 2.65405273 C-14.00713076 2.8402215 -15.42868501 3.02736541 -16.85009766 3.21557617 C-23.8330897 4.13957829 -30.82047145 5.03687841 -37.828125 5.75390625 C-38.76043945 5.85131104 -39.69275391 5.94871582 -40.65332031 6.04907227 C-43 6 -43 6 -46 4 C-41.28702395 3.28133709 -36.57308472 2.56949682 -31.8581543 1.86376953 C-30.25663948 1.62309812 -28.65539605 1.38061317 -27.05444336 1.13623047 C-24.7440293 0.78387974 -22.43269545 0.43821233 -20.12109375 0.09375 C-19.41351425 -0.0156189 -18.70593475 -0.12498779 -17.97691345 -0.2376709 C-11.83749394 -1.14122852 -6.06101795 -1.46933769 0 0 Z " fill="#0A0A11" transform="translate(66,225)"/>
<path d="M0 0 C0.99 0.33 1.98 0.66 3 1 C1.9171875 2.051875 1.9171875 2.051875 0.8125 3.125 C-6.56032351 10.56030507 -11.68458981 18.02716195 -12.5625 28.6875 C-12.64628906 29.68136719 -12.73007813 30.67523438 -12.81640625 31.69921875 C-12.87699219 32.45847656 -12.93757812 33.21773437 -13 34 C-13.33 34 -13.66 34 -14 34 C-15.5937695 23.72690743 -14.41060682 17.32801325 -8.625 8.6875 C-6.09120614 5.25565262 -3.73920928 2.18120541 0 0 Z " fill="#1A191E" transform="translate(168,144)"/>
<path d="M0 0 C0 0.66 0 1.32 0 2 C-1.19625 2.495 -2.3925 2.99 -3.625 3.5 C-9.49960943 6.42688874 -12.68752135 11.13641021 -15.375 17 C-15.58125 17.66 -15.7875 18.32 -16 19 C-16.66 18.67 -17.32 18.34 -18 18 C-17.62138646 11.94218342 -13.54827093 7.2846567 -9.1875 3.375 C-5.84164925 0.8367684 -4.28604912 0 0 0 Z " fill="#08080F" transform="translate(107,130)"/>
<path d="M0 0 C0.66 0 1.32 0 2 0 C4.73977333 8.13777913 5.36741339 15.44062871 5 24 C4.01 23.67 3.02 23.34 2 23 C1.93941406 22.09378906 1.87882813 21.18757813 1.81640625 20.25390625 C1.35047577 13.47999388 0.81358547 6.74113678 0 0 Z " fill="#363441" transform="translate(140,47)"/>
<path d="M0 0 C4.04131267 1.34710422 4.90288434 3.38428334 7 7 C7 7.99 7 8.98 7 10 C3.04 10 -0.92 10 -5 10 C-5 9.01 -5 8.02 -5 7 C-2.69 7 -0.38 7 2 7 C1.34 4.69 0.68 2.38 0 0 Z " fill="#121221" transform="translate(79,234)"/>
<path d="M0 0 C0.66 0 1.32 0 2 0 C2.66 2.31 3.32 4.62 4 7 C5.65 7.33 7.3 7.66 9 8 C9.66 7.01 10.32 6.02 11 5 C11.99 5.33 12.98 5.66 14 6 C12.375 8.5 12.375 8.5 10 11 C6.9375 11.5 6.9375 11.5 4 11 C1.96332385 9.45493534 1.13926922 8.27853844 0 6 C-0.039992 4.00039988 -0.04346799 1.99952758 0 0 Z " fill="#0F0E12" transform="translate(165,172)"/>
<path d="M0 0 C2.86307491 0.93216392 5.67588677 1.85871987 8.4375 3.0625 C11.59384114 4.21725896 14.67112442 4.60836758 18 5 C18 5.99 18 6.98 18 8 C10.63927766 7.57534294 4.67862176 5.01651083 -2 2 C-1.34 1.34 -0.68 0.68 0 0 Z " fill="#1A1A25" transform="translate(45,128)"/>
<path d="M0 0 C0.99 0.33 1.98 0.66 3 1 C2.13329546 7.35583327 1.06965872 13.67551301 0 20 C-2.38656893 16.4201466 -2.11935675 15.29788084 -1.6875 11.125 C-1.58824219 10.09632812 -1.48898438 9.06765625 -1.38671875 8.0078125 C-1.03877758 5.3016034 -0.57549148 2.66595198 0 0 Z " fill="#343035" transform="translate(83,76)"/>
<path d="M0 0 C0.33 0 0.66 0 1 0 C1.18175781 1.21236328 1.18175781 1.21236328 1.3671875 2.44921875 C1.53476563 3.51785156 1.70234375 4.58648437 1.875 5.6875 C2.03742188 6.74324219 2.19984375 7.79898438 2.3671875 8.88671875 C2.95933907 11.79995825 3.88265806 14.25916978 5 17 C4.6546935 20.02143183 4.19398174 20.80601826 2 23 C2 21.68 2 20.36 2 19 C1.67257813 18.06929687 1.34515625 17.13859375 1.0078125 16.1796875 C-0.11121057 12.64912633 -0.20034198 9.81675721 -0.125 6.125 C-0.10695312 4.97257813 -0.08890625 3.82015625 -0.0703125 2.6328125 C-0.04710937 1.76398438 -0.02390625 0.89515625 0 0 Z " fill="#0E0D10" transform="translate(153,170)"/>
<path d="M0 0 C0.33 0 0.66 0 1 0 C1.03758423 0.83978394 1.03758423 0.83978394 1.07592773 1.6965332 C1.19203745 4.23541305 1.3146958 6.77393553 1.4375 9.3125 C1.47681641 10.19357422 1.51613281 11.07464844 1.55664062 11.98242188 C1.59853516 12.82998047 1.64042969 13.67753906 1.68359375 14.55078125 C1.73858032 15.72120972 1.73858032 15.72120972 1.79467773 16.9152832 C1.94125263 19.19329101 1.94125263 19.19329101 3 22 C2.01 22 1.02 22 0 22 C-1.56380504 18.87238992 -1.14320695 15.55397484 -1.125 12.125 C-1.12886719 11.40441406 -1.13273437 10.68382813 -1.13671875 9.94140625 C-1.13036598 6.49184989 -1.08702974 3.29559809 0 0 Z " fill="#0F0E11" transform="translate(81,93)"/>
<path d="M0 0 C0.86882813 0.27714844 1.73765625 0.55429688 2.6328125 0.83984375 C1.9728125 1.49984375 1.3128125 2.15984375 0.6328125 2.83984375 C-0.3571875 2.83984375 -1.3471875 2.83984375 -2.3671875 2.83984375 C-4.72385726 4.83142024 -4.72385726 4.83142024 -7.0546875 7.33984375 C-7.86292969 8.17515625 -8.67117187 9.01046875 -9.50390625 9.87109375 C-10.11878906 10.52078125 -10.73367187 11.17046875 -11.3671875 11.83984375 C-12.3571875 11.50984375 -13.3471875 11.17984375 -14.3671875 10.83984375 C-12.67930189 8.96274676 -10.97110228 7.11599535 -9.2421875 5.27734375 C-8.7678125 4.74431641 -8.2934375 4.21128906 -7.8046875 3.66210938 C-5.09252052 0.82166423 -4.01152775 -0.19080352 0 0 Z " fill="#9C9CE8" transform="translate(45.3671875,130.16015625)"/>
<path d="M0 0 C0.99 0.33 1.98 0.66 3 1 C2.31164062 1.76183594 2.31164062 1.76183594 1.609375 2.5390625 C-1.24742218 5.74395682 -4.02182732 8.85931111 -6.3125 12.5 C-7.1478125 13.7375 -7.1478125 13.7375 -8 15 C-8.66 15 -9.32 15 -10 15 C-8.18050086 9.17760276 -4.27301206 4.27301206 0 0 Z " fill="#161416" transform="translate(101,40)"/>
<path d="M0 0 C5.06419365 1.03585779 9.12207987 3.66691162 13 7 C13.33 7.66 13.66 8.32 14 9 C13.01 9.33 12.02 9.66 11 10 C9.57002851 8.80281457 8.14498258 7.59851699 6.76171875 6.34765625 C3.79375585 4.07726335 0.53080868 3.15664422 -3 2 C-2.01 1.34 -1.02 0.68 0 0 Z " fill="#181822" transform="translate(136,30)"/>
<path d="M0 0 C0 0.33 0 0.66 0 1 C-5.61 1.66 -11.22 2.32 -17 3 C-17.66 2.01 -18.32 1.02 -19 0 C-12.49616858 -1.06185003 -6.45310697 -1.56438957 0 0 Z " fill="#171725" transform="translate(66,225)"/>
<path d="M0 0 C5.21983494 0.25462609 7.80651897 2.11257075 11.58203125 5.4296875 C13 7 13 7 14 10 C13.01 10 12.02 10 11 10 C9.33333333 8.33333333 7.66666667 6.66666667 6 5 C2.83354526 3.20679176 2.83354526 3.20679176 0 2 C0 1.34 0 0.68 0 0 Z " fill="#121118" transform="translate(191,141)"/>
<path d="M0 0 C-3.02153065 3.02153065 -5.93732828 2.96666651 -10.11328125 3.09765625 C-11.16902344 3.08605469 -12.22476563 3.07445312 -13.3125 3.0625 C-14.38113281 3.05347656 -15.44976562 3.04445312 -16.55078125 3.03515625 C-17.35902344 3.02355469 -18.16726562 3.01195312 -19 3 C-13.34406272 -0.77062485 -6.58289369 -0.13434477 0 0 Z " fill="#06060C" transform="translate(214,232)"/>
<path d="M0 0 C0.66 0 1.32 0 2 0 C2.66 2.31 3.32 4.62 4 7 C1.69 7.33 -0.62 7.66 -3 8 C-2.25 2.25 -2.25 2.25 0 0 Z " fill="#4D4D87" transform="translate(181,184)"/>
<path d="M0 0 C0.97582031 0.00902344 1.95164063 0.01804688 2.95703125 0.02734375 C3.69308594 0.03894531 4.42914063 0.05054688 5.1875 0.0625 C2.71526237 2.53473763 1.21943317 2.64259771 -2.1875 3.25 C-3.14398438 3.42917969 -4.10046875 3.60835937 -5.0859375 3.79296875 C-7.68560329 4.04995577 -9.35950305 3.88210325 -11.8125 3.0625 C-11.4825 2.4025 -11.1525 1.7425 -10.8125 1.0625 C-7.19111734 0.03976493 -3.74515244 -0.04512232 0 0 Z " fill="#0B0B16" transform="translate(149.8125,239.9375)"/>
<path d="M0 0 C-1.3697164 3.99500618 -3.25722422 6.80009492 -6 10 C-6 7.03 -6 4.06 -6 1 C-4 0 -4 0 0 0 Z " fill="#A3A3F1" transform="translate(47,67)"/>
<path d="M0 0 C1.17046875 0.11085937 2.3409375 0.22171875 3.546875 0.3359375 C4.43890625 0.43132812 5.3309375 0.52671875 6.25 0.625 C5.26 2.11 5.26 2.11 4.25 3.625 C-0.7802076 3.09962276 -5.76885239 2.51905214 -10.75 1.625 C-7.08460332 -0.75206418 -4.25943165 -0.42594317 0 0 Z " fill="#10101F" transform="translate(22.75,234.375)"/>
<path d="M0 0 C0.99 0.33 1.98 0.66 3 1 C4.89212737 1.22179785 6.78884472 1.40614015 8.6875 1.5625 C9.68136719 1.64628906 10.67523438 1.73007813 11.69921875 1.81640625 C12.83810547 1.90728516 12.83810547 1.90728516 14 2 C14 2.99 14 3.98 14 5 C4.58997722 5.3690205 4.58997722 5.3690205 0 3 C0 2.01 0 1.02 0 0 Z " fill="#141425" transform="translate(97,243)"/>
<path d="M0 0 C0.66 0 1.32 0 2 0 C2.103125 0.639375 2.20625 1.27875 2.3125 1.9375 C2.539375 2.618125 2.76625 3.29875 3 4 C3.99 4.33 4.98 4.66 6 5 C4.75 6.5625 4.75 6.5625 3 8 C0.8125 7.6875 0.8125 7.6875 -1 7 C-0.67 4.69 -0.34 2.38 0 0 Z " fill="#2B2A2E" transform="translate(176,187)"/>
<path d="M0 0 C0.33 0 0.66 0 1 0 C1.05411124 2.41696872 1.09372278 4.83271787 1.125 7.25 C1.14175781 7.93191406 1.15851563 8.61382812 1.17578125 9.31640625 C1.21213482 13.0608235 1.07944349 15.82352727 -1 19 C-1.33 19 -1.66 19 -2 19 C-1.7834375 17.081875 -1.7834375 17.081875 -1.5625 15.125 C-1.00185355 10.08719116 -0.49498469 5.04463121 0 0 Z " fill="#0B0A0C" transform="translate(143,60)"/>
<path d="M0 0 C3 0.5 3 0.5 4.875 2.5 C5.431875 3.49 5.431875 3.49 6 4.5 C4.14375 4.2215625 4.14375 4.2215625 2.25 3.9375 C-0.76279577 3.55288777 -3.10010827 3.4125406 -6 4.5 C-4.26352951 1.41294135 -3.57626319 0.59604387 0 0 Z " fill="#0C0B10" transform="translate(192,161.5)"/>
<path d="M0 0 C0 0.66 0 1.32 0 2 C-1.41623216 2.05447047 -2.83308191 2.09300508 -4.25 2.125 C-5.03890625 2.14820312 -5.8278125 2.17140625 -6.640625 2.1953125 C-9.20731941 1.9828378 -10.7916067 1.28654105 -13 0 C-8.34462607 -0.83796731 -4.62921525 -1.0161692 0 0 Z " fill="#29262A" transform="translate(127,122)"/>
<path d="M0 0 C4.71403788 0.47939368 8.66579301 0.96834048 13 3 C11.296875 4.1171875 11.296875 4.1171875 9 5 C6.640625 4.3203125 6.640625 4.3203125 4.25 3.125 C3.45078125 2.73570313 2.6515625 2.34640625 1.828125 1.9453125 C0.92320313 1.47738281 0.92320313 1.47738281 0 1 C0 0.67 0 0.34 0 0 Z " fill="#1D1C1E" transform="translate(117,115)"/>
<path d="M0 0 C0.66 0 1.32 0 2 0 C1.32902328 4.19360449 -0.8558394 7.40334352 -3 11 C-3.66 10.67 -4.32 10.34 -5 10 C-3.66749209 6.4124787 -2.169283 3.1635377 0 0 Z " fill="#1C1C26" transform="translate(49,64)"/>
<path d="M0 0 C2.5 1 2.5 1 4 2 C-1.22745859 3.2063366 -5.76528314 2.75612577 -11 2 C-7.29598872 -0.46934085 -4.29412135 -0.44928433 0 0 Z " fill="#060608" transform="translate(132,29)"/>
<path d="M0 0 C0.99 0.33 1.98 0.66 3 1 C0.42215154 3.64752004 -1.91648098 5.94432065 -5 8 C-5 4 -5 4 -2.6875 1.6875 C-1.800625 1.130625 -0.91375 0.57375 0 0 Z " fill="#1C1B20" transform="translate(168,144)"/>
<path d="M0 0 C0.99 0.33 1.98 0.66 3 1 C5.39254576 1.22560676 7.78928123 1.40848595 10.1875 1.5625 C12.09595703 1.68818359 12.09595703 1.68818359 14.04296875 1.81640625 C15.01878906 1.87699219 15.99460937 1.93757813 17 2 C17 2.33 17 2.66 17 3 C12.05 3.33 7.1 3.66 2 4 C1.34 2.68 0.68 1.36 0 0 Z " fill="#564E46" transform="translate(98,100)"/>
<path d="M0 0 C1.7182958 2.27060517 2.17840978 3.59744646 2.75 6.3125 C2.27949219 5.97476563 1.80898437 5.63703125 1.32421875 5.2890625 C0.70160156 4.84304687 0.07898438 4.39703125 -0.5625 3.9375 C-1.17738281 3.49664062 -1.79226562 3.05578125 -2.42578125 2.6015625 C-4.0152392 1.47839093 -5.63062171 0.39208553 -7.25 -0.6875 C-3.95291925 -1.78652692 -2.86175329 -2.14631497 0 0 Z " fill="#AEAEDA" transform="translate(146.25,31.6875)"/>
<path d="M0 0 C0.99 0 1.98 0 3 0 C3 2.97 3 5.94 3 9 C2.01 9.33 1.02 9.66 0 10 C0 6.7 0 3.4 0 0 Z " fill="#201F21" transform="translate(177,167)"/>
<path d="M0 0 C0.66 0 1.32 0 2 0 C0.6302836 3.99500618 -1.25722422 6.80009492 -4 10 C-3.52651586 5.8333396 -2.95303159 3.07115285 0 0 Z " fill="#111013" transform="translate(161,151)"/>
<path d="M0 0 C1.98 0.66 3.96 1.32 6 2 C6 4.31 6 6.62 6 9 C3.59927045 6.11912454 1.52708963 3.43595166 0 0 Z " fill="#F8D8BA" transform="translate(99,103)"/>
<path d="M0 0 C6.0546875 -0.1953125 6.0546875 -0.1953125 8 0 C8.66 0.66 9.32 1.32 10 2 C7.00468461 2.99843846 5.82744268 3.00732761 2.8125 2.5625 C1.554375 2.376875 0.29625 2.19125 -1 2 C-0.67 1.34 -0.34 0.68 0 0 Z " fill="#09090C" transform="translate(182,139)"/>
<path d="M0 0 C0.99 0.33 1.98 0.66 3 1 C1.25 6.75 1.25 6.75 -1 9 C-2.25541557 5.23375329 -1.37061958 3.62811066 0 0 Z " fill="#302E38" transform="translate(140,77)"/>
<path d="M0 0 C4.29 0.33 8.58 0.66 13 1 C13 1.33 13 1.66 13 2 C9.37 2.33 5.74 2.66 2 3 C1.34 2.01 0.68 1.02 0 0 Z " fill="#17172D" transform="translate(166,237)"/>
<path d="M0 0 C4.29 0.33 8.58 0.66 13 1 C13 1.33 13 1.66 13 2 C9.37 2.33 5.74 2.66 2 3 C1.34 2.01 0.68 1.02 0 0 Z " fill="#17172D" transform="translate(188,234)"/>
<path d="M0 0 C4.29 0.33 8.58 0.66 13 1 C13 1.33 13 1.66 13 2 C9.37 2.33 5.74 2.66 2 3 C1.34 2.01 0.68 1.02 0 0 Z " fill="#17172C" transform="translate(210,231)"/>
<path d="M0 0 C0.66 0 1.32 0 2 0 C2.99 2.64 3.98 5.28 5 8 C4.01 8 3.02 8 2 8 C0.23537317 4.91190305 0 3.76687864 0 0 Z " fill="#1C1B1F" transform="translate(165,200)"/>
<path d="M0 0 C2.64 0 5.28 0 8 0 C8 0.99 8 1.98 8 3 C5.36 2.67 2.72 2.34 0 2 C0 1.34 0 0.68 0 0 Z " fill="#2A2A3D" transform="translate(55,133)"/>
<path d="M0 0 C3.96 0.33 7.92 0.66 12 1 C12 1.33 12 1.66 12 2 C8.7 2.33 5.4 2.66 2 3 C1.34 2.01 0.68 1.02 0 0 Z " fill="#25253D" transform="translate(47,225)"/>
<path d="M0 0 C2.475 0.99 2.475 0.99 5 2 C3.25 5.875 3.25 5.875 1 7 C0.67 4.69 0.34 2.38 0 0 Z " fill="#C3C0C0" transform="translate(187,201)"/>
<path d="M0 0 C-2.62198774 2.15377564 -4.64404172 3.40072174 -8 4 C-7 1 -7 1 -5.125 -0.25 C-3 -1 -3 -1 0 0 Z " fill="#0D0D13" transform="translate(98,127)"/>
<path d="M0 0 C5.75 0.75 5.75 0.75 8 3 C5.36 3 2.72 3 0 3 C0 2.01 0 1.02 0 0 Z " fill="#F1E6CE" transform="translate(120,118)"/>
<path d="M0 0 C0.99 0.33 1.98 0.66 3 1 C1.515 4.465 1.515 4.465 0 8 C-0.66 7.67 -1.32 7.34 -2 7 C-1.125 2.25 -1.125 2.25 0 0 Z " fill="#1E1C20" transform="translate(90,55)"/>
<path d="M0 0 C0.99 0.33 1.98 0.66 3 1 C1.8125 3 1.8125 3 0 5 C-2.6875 5.25 -2.6875 5.25 -5 5 C-3.35 3.35 -1.7 1.7 0 0 Z " fill="#131215" transform="translate(195,175)"/>
<path d="M0 0 C2.97 0.495 2.97 0.495 6 1 C6.33 2.32 6.66 3.64 7 5 C4.69 4.01 2.38 3.02 0 2 C0 1.34 0 0.68 0 0 Z " fill="#1D1C1F" transform="translate(191,141)"/>
</svg>
