<?xml version="1.0" encoding="UTF-8"?>
<svg version="1.1" xmlns="http://www.w3.org/2000/svg" width="100" height="100">
<path d="M0 0 C6.65222404 2.62162302 11.28277371 7.7504231 14.5625 14.01171875 C17.38361497 24.73195564 16.80699497 33.36406449 12.1875 43.38671875 C12.1875 43.71671875 12.1875 44.04671875 12.1875 44.38671875 C13.0345752 44.26031006 13.88165039 44.13390137 14.75439453 44.00366211 C17.91792529 43.53604175 21.08251958 43.0766946 24.24804688 42.62280273 C25.61408444 42.42523131 26.97965959 42.22443335 28.34472656 42.02026367 C30.31448692 41.7262374 32.28614635 41.44502493 34.2578125 41.1640625 C35.44133301 40.99124756 36.62485352 40.81843262 37.84423828 40.64038086 C44.25146718 40.15424746 48.09602194 41.47930536 53.1875 45.38671875 C55.49967064 50.01106002 54.54138966 56.80830125 54.5925293 61.94189453 C54.61398911 63.55767345 54.64794778 65.17333997 54.69506836 66.78857422 C54.95386019 75.74958672 55.11781709 82.95172554 49.87524414 90.63671875 C46.07732906 94.57472762 41.62483329 94.96616444 36.390625 95.67578125 C35.61709183 95.78429413 34.84355865 95.89280701 34.04658508 96.00460815 C31.51171454 96.35283158 28.97522903 96.68500184 26.4375 97.01171875 C25.5703537 97.12410889 24.7032074 97.23649902 23.80978394 97.35229492 C2.32787357 100.08153681 -21.77227702 102.80182623 -42.8125 96.38671875 C-43.8125 95.38671875 -43.8125 95.38671875 -43.875 92.32421875 C-43.854375 91.35484375 -43.83375 90.38546875 -43.8125 89.38671875 C-42.8225 88.89171875 -42.8225 88.89171875 -41.8125 88.38671875 C-42.8025 87.14921875 -42.8025 87.14921875 -43.8125 85.88671875 C-46.26391641 82.1307986 -46.53777079 78.75345331 -45.8125 74.38671875 C-43.95245674 66.73729085 -40.43211074 60.96542761 -35.6171875 54.796875 C-34.03770262 52.68747636 -32.75775746 50.84227585 -31.8125 48.38671875 C-32.121875 47.68546875 -32.43125 46.98421875 -32.75 46.26171875 C-34.64242912 41.14102818 -33.51184643 35.48475803 -31.8125 30.38671875 C-31.79289601 28.67837087 -31.81905482 26.96926288 -31.875 25.26171875 C-31.92793283 17.24768804 -31.00261513 10.76314591 -25.8125 4.38671875 C-18.5410781 -2.01905769 -9.27000857 -2.02137687 0 0 Z " fill="#4F4F8A" transform="translate(45.8125,0.61328125)"/>
<path d="M0 0 C5.61339816 2.05910039 9.41220942 4.6216313 13.12890625 9.31640625 C13.12890625 10.63640625 13.12890625 11.95640625 13.12890625 13.31640625 C13.61617187 13.72503906 14.1034375 14.13367187 14.60546875 14.5546875 C17.09903034 17.4382677 16.57027677 20.87332245 16.50390625 24.50390625 C16.49593018 25.27041504 16.4879541 26.03692383 16.47973633 26.82666016 C16.32551441 32.93176585 15.74766289 38.11081338 11.734375 43.0234375 C10.12890625 44.31640625 10.12890625 44.31640625 6.75390625 44.12890625 C3.67164393 43.43805435 0.99515619 42.61924713 -1.87109375 41.31640625 C-1.87109375 40.65640625 -1.87109375 39.99640625 -1.87109375 39.31640625 C-1.2678125 39.16945312 -0.66453125 39.0225 -0.04296875 38.87109375 C4.35402162 37.63709968 6.63039244 36.91462283 9.62890625 33.31640625 C11.92458103 28.72505669 12.3147781 25.42788202 12.12890625 20.31640625 C11.63390625 19.32640625 11.63390625 19.32640625 11.12890625 18.31640625 C11.1753125 19.04085938 11.22171875 19.7653125 11.26953125 20.51171875 C11.49850577 26.64496488 11.50201697 30.58871898 7.12890625 35.31640625 C3.17952943 38.51860367 0.12725617 38.61042683 -4.87109375 38.31640625 C-3.88109375 38.81140625 -3.88109375 38.81140625 -2.87109375 39.31640625 C-2.54109375 40.30640625 -2.21109375 41.29640625 -1.87109375 42.31640625 C1.13738043 43.54160889 1.13738043 43.54160889 4.12890625 44.31640625 C3.46890625 44.97640625 2.80890625 45.63640625 2.12890625 46.31640625 C-0.10551703 46.25933846 -2.26872428 45.99277713 -4.484375 45.703125 C-7.65834309 46.51869454 -9.1076627 48.15693614 -10.86938477 50.86303711 C-13.04877936 56.20077443 -12.65777346 62.07057319 -12.68359375 67.75390625 C-12.70873047 69.05779297 -12.73386719 70.36167969 -12.75976562 71.70507812 C-12.8184484 74.90915782 -12.85486909 78.11187691 -12.87109375 81.31640625 C-14.19109375 80.98640625 -15.51109375 80.65640625 -16.87109375 80.31640625 C-15.55109375 80.97640625 -14.23109375 81.63640625 -12.87109375 82.31640625 C-13.20109375 83.30640625 -13.53109375 84.29640625 -13.87109375 85.31640625 C-16.37037144 85.6561139 -18.8702897 85.98828657 -21.37109375 86.31640625 C-22.0671875 86.41179687 -22.76328125 86.5071875 -23.48046875 86.60546875 C-36.55859375 88.30078125 -36.55859375 88.30078125 -40.37109375 85.44140625 C-42.88465393 80.20482253 -42.67097052 75.36919036 -41.2109375 69.796875 C-38.53323568 62.43609293 -33.99300894 54.36658032 -27.87109375 49.31640625 C-26.88109375 49.31640625 -25.89109375 49.31640625 -24.87109375 49.31640625 C-25.51046875 48.88328125 -26.14984375 48.45015625 -26.80859375 48.00390625 C-28.87109375 46.31640625 -28.87109375 46.31640625 -29.87109375 43.31640625 C-30.29243733 37.10158838 -29.32091725 33.03266107 -26.87109375 27.31640625 C-27.20109375 27.31640625 -27.53109375 27.31640625 -27.87109375 27.31640625 C-28.67676111 11.38209616 -28.67676111 11.38209616 -23.87109375 5.31640625 C-17.02200142 -1.63751913 -9.37674016 -2.23255718 0 0 Z " fill="#BEBEF3" transform="translate(43.87109375,1.68359375)"/>
<path d="M0 0 C6.65222404 2.62162302 11.28277371 7.7504231 14.5625 14.01171875 C17.38361497 24.73195564 16.80699497 33.36406449 12.1875 43.38671875 C12.1875 43.71671875 12.1875 44.04671875 12.1875 44.38671875 C13.0345752 44.26031006 13.88165039 44.13390137 14.75439453 44.00366211 C17.91792529 43.53604175 21.08251958 43.0766946 24.24804688 42.62280273 C25.61408444 42.42523131 26.97965959 42.22443335 28.34472656 42.02026367 C30.31448692 41.7262374 32.28614635 41.44502493 34.2578125 41.1640625 C35.44133301 40.99124756 36.62485352 40.81843262 37.84423828 40.64038086 C44.25146718 40.15424746 48.09602194 41.47930536 53.1875 45.38671875 C55.49967064 50.01106002 54.54138966 56.80830125 54.5925293 61.94189453 C54.61398911 63.55767345 54.64794778 65.17333997 54.69506836 66.78857422 C54.95386019 75.74958672 55.11781709 82.95172554 49.87524414 90.63671875 C46.07732906 94.57472762 41.62483329 94.96616444 36.390625 95.67578125 C35.61709183 95.78429413 34.84355865 95.89280701 34.04658508 96.00460815 C31.51171454 96.35283158 28.97522903 96.68500184 26.4375 97.01171875 C25.5703537 97.12410889 24.7032074 97.23649902 23.80978394 97.35229492 C2.32787357 100.08153681 -21.77227702 102.80182623 -42.8125 96.38671875 C-43.8125 95.38671875 -43.8125 95.38671875 -43.875 92.32421875 C-43.854375 91.35484375 -43.83375 90.38546875 -43.8125 89.38671875 C-42.8225 88.89171875 -42.8225 88.89171875 -41.8125 88.38671875 C-42.8025 87.14921875 -42.8025 87.14921875 -43.8125 85.88671875 C-46.26391641 82.1307986 -46.53777079 78.75345331 -45.8125 74.38671875 C-43.95245674 66.73729085 -40.43211074 60.96542761 -35.6171875 54.796875 C-34.03770262 52.68747636 -32.75775746 50.84227585 -31.8125 48.38671875 C-32.121875 47.68546875 -32.43125 46.98421875 -32.75 46.26171875 C-34.64242912 41.14102818 -33.51184643 35.48475803 -31.8125 30.38671875 C-31.79289601 28.67837087 -31.81905482 26.96926288 -31.875 25.26171875 C-31.92793283 17.24768804 -31.00261513 10.76314591 -25.8125 4.38671875 C-18.5410781 -2.01905769 -9.27000857 -2.02137687 0 0 Z M-26.0625 6.82421875 C-29.44359673 11.7751104 -30.0509278 15.59405305 -29.9375 21.57421875 C-29.91042969 23.42080078 -29.91042969 23.42080078 -29.8828125 25.3046875 C-29.85960937 26.32175781 -29.83640625 27.33882812 -29.8125 28.38671875 C-29.8125 30.38671875 -29.8125 30.38671875 -30.8125 33.01171875 C-32.19529388 37.6786481 -32.53920996 41.9423307 -31.125 46.69921875 C-29.36684266 48.95970676 -27.32485884 50.06442463 -24.8125 51.38671875 C-26.4625 51.05671875 -28.1125 50.72671875 -29.8125 50.38671875 C-37.38758019 58.20832522 -43.79769258 67.14408642 -44.125 78.32421875 C-44.06941967 81.74493553 -43.82514944 83.36036576 -42.3125 86.51171875 C-37.26686828 90.29594254 -29.30441549 88.2078331 -23.3125 87.38671875 C-22.58546875 87.29132813 -21.8584375 87.1959375 -21.109375 87.09765625 C-19.34314133 86.86525708 -17.57772594 86.62665237 -15.8125 86.38671875 C-15.3175 84.90171875 -15.3175 84.90171875 -14.8125 83.38671875 C-16.2975 82.39671875 -16.2975 82.39671875 -17.8125 81.38671875 C-16.3275 81.88171875 -16.3275 81.88171875 -14.8125 82.38671875 C-14.80839111 81.57517334 -14.80428223 80.76362793 -14.80004883 79.92749023 C-14.76701343 76.22567568 -14.69635412 72.5254849 -14.625 68.82421875 C-14.61919922 67.54740234 -14.61339844 66.27058594 -14.60742188 64.95507812 C-14.43520304 57.58793893 -14.29600525 52.62026365 -8.8125 47.38671875 C-6.42578125 46.7734375 -6.42578125 46.7734375 -4.125 47.07421875 C-1.8610657 47.36307751 -1.8610657 47.36307751 0.1875 47.38671875 C0.8475 46.72671875 1.5075 46.06671875 2.1875 45.38671875 C1.218125 45.11859375 0.24875 44.85046875 -0.75 44.57421875 C-2.2659375 43.98640625 -2.2659375 43.98640625 -3.8125 43.38671875 C-4.1425 42.39671875 -4.4725 41.40671875 -4.8125 40.38671875 C-5.1425 40.05671875 -5.4725 39.72671875 -5.8125 39.38671875 C-4.94625 39.46921875 -4.08 39.55171875 -3.1875 39.63671875 C1.87459223 39.26174895 4.70580001 37.01658874 8.0625 33.32421875 C9.81110539 28.75841578 9.41599567 24.21897897 9.1875 19.38671875 C10.75178238 22.51528351 10.46757086 24.91384006 10.1875 28.38671875 C8.79331166 32.52382111 7.18969526 35.590102 3.75 38.32421875 C1.21578299 39.37499166 -1.10033727 39.99926693 -3.8125 40.38671875 C-3.4825 41.37671875 -3.1525 42.36671875 -2.8125 43.38671875 C0.83040855 44.9597929 4.23771932 46.11430993 8.1875 45.38671875 C13.22536826 40.49278958 14.45070575 34.79667495 14.55859375 28.01171875 C14.55988281 27.26921875 14.56117187 26.52671875 14.5625 25.76171875 C14.59923828 24.63636719 14.59923828 24.63636719 14.63671875 23.48828125 C14.65612161 19.84054317 14.63833075 17.8932506 12.1640625 15.11328125 C11.18566406 14.25863281 11.18566406 14.25863281 10.1875 13.38671875 C10.1875 12.06671875 10.1875 10.74671875 10.1875 9.38671875 C6.48458976 4.6539366 1.0236396 1.54818732 -4.8125 0.38671875 C-13.96269114 -0.52157228 -19.62413363 -0.15067815 -26.0625 6.82421875 Z M38.1875 44.38671875 C35.16367751 44.84333176 32.14754556 45.24670531 29.11328125 45.62109375 C27.22968731 45.86749481 25.34622761 46.11492384 23.46289062 46.36328125 C20.4861815 46.75243199 17.50926588 47.13558251 14.52954102 47.50097656 C11.65882639 47.85548605 8.79254861 48.23611948 5.92578125 48.62109375 C5.04118729 48.72339294 4.15659332 48.82569214 3.24519348 48.93109131 C-2.54816679 49.73740401 -5.9965249 50.81488925 -9.8125 55.38671875 C-10.40104356 58.48226492 -10.6124249 60.78009507 -10.5390625 63.86328125 C-10.54005951 64.67034515 -10.54105652 65.47740906 -10.54208374 66.30892944 C-10.53741746 68.00846244 -10.51804856 69.70801118 -10.48486328 71.40722656 C-10.43751276 74.01101708 -10.44376501 76.61072986 -10.45703125 79.21484375 C-10.44588147 80.86851402 -10.43166404 82.52216706 -10.4140625 84.17578125 C-10.41588531 84.95394196 -10.41770813 85.73210266 -10.41958618 86.53384399 C-10.33333303 89.81132692 -10.25575557 91.8634213 -8.09545898 94.41381836 C-5.30167262 95.60441174 -3.6900814 95.55287671 -0.68359375 95.1640625 C0.33903564 95.0398291 1.36166504 94.9155957 2.4152832 94.78759766 C3.51573975 94.63468262 4.61619629 94.48176758 5.75 94.32421875 C6.88719482 94.17645996 8.02438965 94.02870117 9.19604492 93.87646484 C11.61290113 93.5580964 14.02866589 93.23134936 16.44335938 92.89697266 C20.20349125 92.38453945 23.96737316 91.91983926 27.734375 91.4609375 C30.1565189 91.14659633 32.57840356 90.83024992 35 90.51171875 C36.143479 90.37499756 37.28695801 90.23827637 38.46508789 90.09741211 C40.06984985 89.87323608 40.06984985 89.87323608 41.70703125 89.64453125 C42.64651611 89.52223145 43.58600098 89.39993164 44.55395508 89.27392578 C48.25057501 88.02858261 49.85436558 86.50967718 52.1875 83.38671875 C52.6627463 80.43227095 52.84537661 78.07112791 52.78125 75.12890625 C52.78129028 74.34403839 52.78133057 73.55917053 52.78137207 72.7505188 C52.77602844 71.09808302 52.75849494 69.44564691 52.72949219 67.79345703 C52.68751394 65.26255912 52.68843561 62.7343135 52.6953125 60.203125 C52.68482342 58.59503358 52.67188683 56.98695586 52.65625 55.37890625 C52.65604858 54.62261932 52.65584717 53.8663324 52.65563965 53.08712769 C52.58806486 49.00544565 52.58806486 49.00544565 50.78320312 45.44970703 C47.68955682 43.38885391 41.20416426 41.37005449 38.1875 44.38671875 Z " fill="#373659" transform="translate(45.8125,0.61328125)"/>
<path d="M0 0 C2.578125 0.391875 5.15625 0.78375 7.8125 1.1875 C7.4825 11.0875 7.1525 20.9875 6.8125 31.1875 C5.4925 30.8575 4.1725 30.5275 2.8125 30.1875 C4.1325 30.8475 5.4525 31.5075 6.8125 32.1875 C6.4825 33.1775 6.1525 34.1675 5.8125 35.1875 C3.31322231 35.52720765 0.81330405 35.85938032 -1.6875 36.1875 C-2.38359375 36.28289062 -3.0796875 36.37828125 -3.796875 36.4765625 C-16.875 38.171875 -16.875 38.171875 -20.6875 35.3125 C-23.20106018 30.07591628 -22.98737677 25.24028411 -21.52734375 19.66796875 C-19.16003568 13.16043357 -15.46735601 7.59938288 -11.1875 2.1875 C-10.79046875 1.58164062 -10.3934375 0.97578125 -9.984375 0.3515625 C-6.88776703 -1.65450093 -3.46146851 -0.56431359 0 0 Z " fill="#A0A0EF" transform="translate(24.1875,51.8125)"/>
<path d="M0 0 C6.65222404 2.62162302 11.28277371 7.7504231 14.5625 14.01171875 C17.38361497 24.73195564 16.80699497 33.36406449 12.1875 43.38671875 C12.1875 43.71671875 12.1875 44.04671875 12.1875 44.38671875 C13.0345752 44.26031006 13.88165039 44.13390137 14.75439453 44.00366211 C17.91792529 43.53604175 21.08251958 43.0766946 24.24804688 42.62280273 C25.61408444 42.42523131 26.97965959 42.22443335 28.34472656 42.02026367 C30.31448692 41.7262374 32.28614635 41.44502493 34.2578125 41.1640625 C35.44133301 40.99124756 36.62485352 40.81843262 37.84423828 40.64038086 C44.25146718 40.15424746 48.09602194 41.47930536 53.1875 45.38671875 C55.49967064 50.01106002 54.54138966 56.80830125 54.5925293 61.94189453 C54.61398911 63.55767345 54.64794778 65.17333997 54.69506836 66.78857422 C54.95386019 75.74958672 55.11781709 82.95172554 49.87524414 90.63671875 C46.07732906 94.57472762 41.62483329 94.96616444 36.390625 95.67578125 C35.61709183 95.78429413 34.84355865 95.89280701 34.04658508 96.00460815 C31.51171454 96.35283158 28.97522903 96.68500184 26.4375 97.01171875 C25.5703537 97.12410889 24.7032074 97.23649902 23.80978394 97.35229492 C2.32787357 100.08153681 -21.77227702 102.80182623 -42.8125 96.38671875 C-43.8125 95.38671875 -43.8125 95.38671875 -43.875 92.32421875 C-43.854375 91.35484375 -43.83375 90.38546875 -43.8125 89.38671875 C-42.8225 88.89171875 -42.8225 88.89171875 -41.8125 88.38671875 C-42.8025 87.14921875 -42.8025 87.14921875 -43.8125 85.88671875 C-46.26391641 82.1307986 -46.53777079 78.75345331 -45.8125 74.38671875 C-43.95245674 66.73729085 -40.43211074 60.96542761 -35.6171875 54.796875 C-34.03770262 52.68747636 -32.75775746 50.84227585 -31.8125 48.38671875 C-32.121875 47.68546875 -32.43125 46.98421875 -32.75 46.26171875 C-34.64242912 41.14102818 -33.51184643 35.48475803 -31.8125 30.38671875 C-31.79289601 28.67837087 -31.81905482 26.96926288 -31.875 25.26171875 C-31.92793283 17.24768804 -31.00261513 10.76314591 -25.8125 4.38671875 C-18.5410781 -2.01905769 -9.27000857 -2.02137687 0 0 Z M-26.0625 6.82421875 C-29.44359673 11.7751104 -30.0509278 15.59405305 -29.9375 21.57421875 C-29.91042969 23.42080078 -29.91042969 23.42080078 -29.8828125 25.3046875 C-29.85960937 26.32175781 -29.83640625 27.33882812 -29.8125 28.38671875 C-29.8125 30.38671875 -29.8125 30.38671875 -30.8125 33.01171875 C-32.19529388 37.6786481 -32.53920996 41.9423307 -31.125 46.69921875 C-29.36684266 48.95970676 -27.32485884 50.06442463 -24.8125 51.38671875 C-26.4625 51.05671875 -28.1125 50.72671875 -29.8125 50.38671875 C-37.38758019 58.20832522 -43.79769258 67.14408642 -44.125 78.32421875 C-44.16238281 79.15824219 -44.19976562 79.99226563 -44.23828125 80.8515625 C-43.63894917 84.4200627 -42.48837047 85.96426137 -39.8125 88.38671875 C-36.31274865 88.99057567 -36.31274865 88.99057567 -32.5625 88.69921875 C-30.66757812 88.63154297 -30.66757812 88.63154297 -28.734375 88.5625 C-27.77015625 88.50449219 -26.8059375 88.44648437 -25.8125 88.38671875 C-26.52277344 88.43570313 -27.23304687 88.4846875 -27.96484375 88.53515625 C-29.34349609 88.64730469 -29.34349609 88.64730469 -30.75 88.76171875 C-31.66652344 88.83132812 -32.58304688 88.9009375 -33.52734375 88.97265625 C-34.65849609 89.17761719 -34.65849609 89.17761719 -35.8125 89.38671875 C-36.3075 90.37671875 -36.3075 90.37671875 -36.8125 91.38671875 C-31.8625 92.04671875 -26.9125 92.70671875 -21.8125 93.38671875 C-26.1930761 93.38671875 -30.30880456 92.99800767 -34.625 92.38671875 C-35.31787109 92.29132813 -36.01074219 92.1959375 -36.72460938 92.09765625 C-38.42098883 91.86367288 -40.11680462 91.62560917 -41.8125 91.38671875 C-41.8125 92.70671875 -41.8125 94.02671875 -41.8125 95.38671875 C-20.22830495 100.50116835 1.2252248 98.82292732 23 96.01171875 C24.29130829 95.84555054 24.29130829 95.84555054 25.60870361 95.67602539 C28.0804519 95.3525473 30.55023151 95.01741186 33.01953125 94.67578125 C33.75596359 94.57669464 34.49239594 94.47760803 35.25114441 94.3755188 C42.49297542 93.41003594 42.49297542 93.41003594 48.84960938 90.08520508 C53.59699775 83.33979395 52.87035468 75.47187197 52.72949219 67.56713867 C52.6873085 65.06285006 52.68845799 62.56122784 52.6953125 60.05664062 C52.68482941 58.46222088 52.67189606 56.86781494 52.65625 55.2734375 C52.65604858 54.52656174 52.65584717 53.77968597 52.65563965 53.01017761 C52.59012883 49.0127482 52.59012883 49.0127482 50.84570312 45.51879883 C42.87650898 40.07811078 33.6364435 42.53155675 24.4375 43.82421875 C23.43589844 43.95892578 22.43429688 44.09363281 21.40234375 44.23242188 C16.65062385 44.87752292 11.91152799 45.55921045 7.1875 46.38671875 C8.42447917 45.01953125 9.66145833 43.65234375 10.8984375 42.28515625 C14.37514933 37.16490792 14.55213858 31.7298968 14.5625 25.76171875 C14.59923828 24.63636719 14.59923828 24.63636719 14.63671875 23.48828125 C14.65612161 19.84054317 14.63833075 17.8932506 12.1640625 15.11328125 C11.18566406 14.25863281 11.18566406 14.25863281 10.1875 13.38671875 C10.1875 12.06671875 10.1875 10.74671875 10.1875 9.38671875 C6.48458976 4.6539366 1.0236396 1.54818732 -4.8125 0.38671875 C-13.96269114 -0.52157228 -19.62413363 -0.15067815 -26.0625 6.82421875 Z " fill="#15151D" transform="translate(45.8125,0.61328125)"/>
<path d="M0 0 C3.58833744 3.58833744 4.18325152 7.39425537 4.3125 12.3125 C4.25921594 17.35450459 3.5206252 20.1939187 0 24 C-3.94937682 27.20219742 -7.00165008 27.29402058 -12 27 C-11.34 27.33 -10.68 27.66 -10 28 C-9.67 28.99 -9.34 29.98 -9 31 C-5.99152582 32.22520264 -5.99152582 32.22520264 -3 33 C-5.55567619 35.55567619 -7.33934676 35.27545746 -10.83203125 35.36328125 C-13.86380907 34.85525362 -15.61926104 33.95048493 -18 32 C-19.88554281 23.15531564 -17.35406873 14.15653149 -13.6875 6.125 C-10.01456029 1.49981666 -5.96940628 -1.06122778 0 0 Z " fill="#FDEAD2" transform="translate(51,13)"/>
<path d="M0 0 C0.495 1.485 0.495 1.485 1 3 C-1.79214873 5.79214873 -4.77376192 5.75770325 -8.53515625 6.25390625 C-9.28784286 6.35968491 -10.04052948 6.46546356 -10.81602478 6.57444763 C-13.2305004 6.91166647 -15.64641057 7.23706755 -18.0625 7.5625 C-19.66351475 7.78506549 -21.26442771 8.00836459 -22.86523438 8.23242188 C-27.24098182 8.84147179 -31.61975697 9.42418067 -36 10 C-36.88155762 10.12068848 -37.76311523 10.24137695 -38.67138672 10.36572266 C-55.31535615 12.47616429 -72.68209278 11.8665845 -89 8 C-88.67 6.68 -88.34 5.36 -88 4 C-86.72769531 4.2165625 -86.72769531 4.2165625 -85.4296875 4.4375 C-76.99679664 5.77193548 -68.54779128 6.8209743 -60 6 C-59.34 5.34 -58.68 4.68 -58 4 C-57.4225 4.680625 -56.845 5.36125 -56.25 6.0625 C-55.13625 7.0215625 -55.13625 7.0215625 -54 8 C-52.09712668 7.69140897 -52.09712668 7.69140897 -50 7 C-48.32184189 6.72773681 -46.63999114 6.47777655 -44.95605469 6.24389648 C-43.95531921 6.10382675 -42.95458374 5.96375702 -41.92352295 5.81944275 C-40.85047913 5.67148758 -39.7774353 5.52353241 -38.671875 5.37109375 C-37.01566132 5.1401577 -37.01566132 5.1401577 -35.32598877 4.90455627 C-31.80093763 4.41351112 -28.27547807 3.92546956 -24.75 3.4375 C-22.35934748 3.1050155 -19.96872214 2.77233559 -17.578125 2.43945312 C-11.71906333 1.62403462 -5.85966354 0.81108148 0 0 Z " fill="#3B3B74" transform="translate(93,88)"/>
<path d="M0 0 C0.495 0.99 0.495 0.99 1 2 C0.22265625 3.7265625 0.22265625 3.7265625 -0.9375 5.625 C-1.618125 6.73875 -2.29875 7.8525 -3 9 C-2.12263184 8.87359131 -1.24526367 8.74718262 -0.34130859 8.61694336 C2.93411621 8.14942768 6.21047634 7.69006983 9.48779297 7.23608398 C10.90231015 7.03846524 12.31638683 6.83766509 13.72998047 6.63354492 C15.76941374 6.33963082 17.81019058 6.05743548 19.8515625 5.77734375 C21.68968506 5.51812134 21.68968506 5.51812134 23.56494141 5.25366211 C30.02038652 4.77695938 33.86585465 6.05984194 39 10 C41.31217064 14.62434127 40.35388966 21.4215825 40.4050293 26.55517578 C40.42648911 28.1709547 40.46044778 29.78662122 40.50756836 31.40185547 C40.76636019 40.36286797 40.93031709 47.56500679 35.68774414 55.25 C31.88982906 59.18800887 27.43733329 59.57944569 22.203125 60.2890625 C21.42959183 60.39757538 20.65605865 60.50608826 19.85908508 60.6178894 C17.32421454 60.96611283 14.78772903 61.29828309 12.25 61.625 C11.3828537 61.73739014 10.5157074 61.84978027 9.62228394 61.96557617 C-11.85962643 64.69481806 -35.95977702 67.41510748 -57 61 C-58 60 -58 60 -58.0625 56.9375 C-58.041875 55.968125 -58.02125 54.99875 -58 54 C-57.01 54.33 -56.02 54.66 -55 55 C-55.66 55 -56.32 55 -57 55 C-56.67 56.32 -56.34 57.64 -56 59 C-34.41580495 64.1144496 -12.9622752 62.43620857 8.8125 59.625 C10.10380829 59.45883179 10.10380829 59.45883179 11.42120361 59.28930664 C13.8929519 58.96582855 16.36273151 58.63069311 18.83203125 58.2890625 C19.56846359 58.18997589 20.30489594 58.09088928 21.06364441 57.98880005 C29.29589952 57.02949809 29.29589952 57.02949809 35.35058594 51.93725586 C37.48115355 47.66281664 37.51261494 43.70191721 37.390625 39.00390625 C37.38213531 37.75358864 37.38213531 37.75358864 37.37347412 36.47801208 C37.35124195 33.83890168 37.30107305 31.2011938 37.25 28.5625 C37.22991787 26.76369161 37.21167011 24.96486174 37.1953125 23.16601562 C37.15142071 18.77681067 37.08248731 14.38864239 37 10 C28.40557417 6.17172897 19.05511436 8.18791747 10 9.4375 C8.44732422 9.63956055 8.44732422 9.63956055 6.86328125 9.84570312 C1.77379727 10.37354348 1.77379727 10.37354348 -3 12 C-5.3329866 12.04022391 -7.66706666 12.04320247 -10 12 C-9.278125 11.505 -8.55625 11.01 -7.8125 10.5 C-4.34111489 7.41432434 -2.2836532 4.00368136 0 0 Z " fill="#07070E" transform="translate(60,36)"/>
<path d="M0 0 C2.3181362 1.89111111 3.66914015 3.33828031 5 6 C5.14716542 7.80843663 5.2210887 9.62331566 5.25 11.4375 C5.27578125 12.40558594 5.3015625 13.37367187 5.328125 14.37109375 C5 17 5 17 3.609375 18.84765625 C2 20 2 20 0 20 C-0.66 21.32 -1.32 22.64 -2 24 C-2 23.34 -2 22.68 -2 22 C-3.65 22 -5.3 22 -7 22 C-6.67 21.34 -6.34 20.68 -6 20 C-5.01 20 -4.02 20 -3 20 C-3 18.35 -3 16.7 -3 15 C-1.68 14.34 -0.36 13.68 1 13 C0.67 11.35 0.34 9.7 0 8 C-3.27773504 8.75150023 -3.27773504 8.75150023 -5 12 C-5.66 10.68 -6.32 9.36 -7 8 C-7.99 8 -8.98 8 -10 8 C-10.33 10.31 -10.66 12.62 -11 15 C-12.32 15 -13.64 15 -15 15 C-15.71920089 8.16759156 -15.71920089 8.16759156 -13.734375 4.9453125 C-9.22969555 -0.32472511 -7.09035599 -1.58921772 0 0 Z " fill="#F4EFF0" transform="translate(76,56)"/>
<path d="M0 0 C1.13888672 0.04833984 1.13888672 0.04833984 2.30078125 0.09765625 C5.89931916 1.36391754 7.92135752 3.65990076 9.6875 6.9375 C10.32701416 9.76399031 10.30845425 12.4268315 10.1875 15.3125 C10.17050049 16.06547363 10.15350098 16.81844727 10.13598633 17.59423828 C9.90820012 23.60805532 9.2372406 28.81638895 5.29296875 33.64453125 C3.6875 34.9375 3.6875 34.9375 0.3125 34.75 C-2.76976232 34.0591481 -5.44625006 33.24034088 -8.3125 31.9375 C-8.3125 31.2775 -8.3125 30.6175 -8.3125 29.9375 C-7.70921875 29.79054688 -7.1059375 29.64359375 -6.484375 29.4921875 C-2.08738463 28.25819343 0.18898619 27.53571658 3.1875 23.9375 C5.99679588 18.31890824 6.37823251 13.7535633 4.875 7.625 C3.8520779 4.65947519 3.8520779 4.65947519 0.6875 2.9375 C-2.83545483 2.56271757 -4.66131863 2.52622755 -7.6875 4.4375 C-8.22375 4.9325 -8.76 5.4275 -9.3125 5.9375 C-9.9725 5.6075 -10.6325 5.2775 -11.3125 4.9375 C-4.86888079 -0.31913672 -4.86888079 -0.31913672 0 0 Z " fill="#A1A1F1" transform="translate(50.3125,11.0625)"/>
<path d="M0 0 C2 0.3125 2 0.3125 4 1 C4.33 1.66 4.66 2.32 5 3 C5.99 2.01 6.98 1.02 8 0 C9.32 0.66 10.64 1.32 12 2 C11.67 3.65 11.34 5.3 11 7 C9.68 7.33 8.36 7.66 7 8 C7.020625 8.804375 7.04125 9.60875 7.0625 10.4375 C7 13 7 13 6 14 C6.66 14.66 7.32 15.32 8 16 C7.67 16.66 7.34 17.32 7 18 C6.34 18 5.68 18 5 18 C5 17.34 5 16.68 5 16 C4.34 16 3.68 16 3 16 C3 16.99 3 17.98 3 19 C-0.04860014 17.98379995 -0.86666922 17.22608429 -3 15 C-3.66 14.67 -4.32 14.34 -5 14 C-5 12.02 -5 10.04 -5 8 C-4.01 7.67 -3.02 7.34 -2 7 C-1.855625 6.030625 -1.71125 5.06125 -1.5625 4.0625 C-1 1 -1 1 0 0 Z " fill="#EBE7E8" transform="translate(66,63)"/>
<path d="M0 0 C1.875 2.5 1.875 2.5 3 5 C1.515 5.061875 1.515 5.061875 0 5.125 C-4.96190564 5.84104736 -8.47845323 8.54983594 -12 12 C-14.00590779 15.16675045 -14.00590779 15.16675045 -15 18 C-16.125 16.3125 -16.125 16.3125 -17 14 C-15.56942027 8.9279446 -12.96674628 4.86390093 -9.0625 1.375 C-5.64033511 -0.1614822 -3.69201063 -0.73840213 0 0 Z " fill="#FBD6B8" transform="translate(51,13)"/>
<path d="M0 0 C0.495 1.485 0.495 1.485 1 3 C-1.39763185 5.39763185 -2.33273498 5.34280586 -5.625 5.625 C-6.44226563 5.69976562 -7.25953125 5.77453125 -8.1015625 5.8515625 C-8.72804687 5.90054688 -9.35453125 5.94953125 -10 6 C-10 5.67 -10 5.34 -10 5 C-17.16985583 5.41406462 -24.21302501 5.97086862 -31.3125 7.0625 C-36.63142674 7.87203225 -41.62726215 8.18526682 -47 8 C-47 7.67 -47 7.34 -47 7 C-46.28682617 6.89453857 -45.57365234 6.78907715 -44.83886719 6.68041992 C-29.89020134 4.46931309 -14.94299673 2.24911695 0 0 Z " fill="#1F1F3A" transform="translate(93,88)"/>
<path d="M0 0 C3.63 0.33 7.26 0.66 11 1 C11.33 2.98 11.66 4.96 12 7 C9.29139876 6.85823579 6.58319248 6.71171784 3.875 6.5625 C2.73417969 6.50352539 2.73417969 6.50352539 1.5703125 6.44335938 C-2.68509203 6.20490998 -6.80370826 5.79769763 -11 5 C-10.67 4.34 -10.34 3.68 -10 3 C-7.71484375 2.5859375 -7.71484375 2.5859375 -4.9375 2.375 C-4.01839844 2.30023438 -3.09929688 2.22546875 -2.15234375 2.1484375 C-1.44207031 2.09945312 -0.73179688 2.05046875 0 2 C0 1.34 0 0.68 0 0 Z " fill="#4F4F8A" transform="translate(20,87)"/>
<path d="M0 0 C0.66 0 1.32 0 2 0 C2.33 2.31 2.66 4.62 3 7 C3.804375 7.268125 4.60875 7.53625 5.4375 7.8125 C6.283125 8.204375 7.12875 8.59625 8 9 C8.33 9.99 8.66 10.98 9 12 C12.00847418 13.22520264 12.00847418 13.22520264 15 14 C12.44432381 16.55567619 10.66065324 16.27545746 7.16796875 16.36328125 C4.10783445 15.85050199 2.38205836 15.0029072 0 13 C-0.48828125 9.86328125 -0.48828125 9.86328125 -0.3125 6.3125 C-0.26738281 5.13300781 -0.22226562 3.95351563 -0.17578125 2.73828125 C-0.11777344 1.83464844 -0.05976562 0.93101563 0 0 Z " fill="#F7E7CF" transform="translate(33,32)"/>
<path d="M0 0 C-3.11910856 1.79275866 -5.67682428 2.34290718 -9.25 2.625 C-10.14203125 2.69976562 -11.0340625 2.77453125 -11.953125 2.8515625 C-12.62859375 2.90054688 -13.3040625 2.94953125 -14 3 C-6.27279225 4.23107719 1.1683819 5.2700558 9 5 C9.33 5.66 9.66 6.32 10 7 C0.95440919 7.2280401 -7.3533741 6.87429762 -16.26953125 5.2421875 C-17.17058594 5.16226563 -18.07164063 5.08234375 -19 5 C-19.66 5.66 -20.32 6.32 -21 7 C-21 5.68 -21 4.36 -21 3 C-14.67939304 -0.79236417 -7.11516492 -0.12884604 0 0 Z " fill="#242440" transform="translate(24,88)"/>
<path d="M0 0 C3.35233535 2.73660028 4.76758022 4.1222928 5.296875 8.3984375 C5.31091777 10.62421594 5.22138004 12.78619957 5 15 C4.34 15.33 3.68 15.66 3 16 C3 13.69 3 11.38 3 9 C2.01 9.495 2.01 9.495 1 10 C0.731875 9.05125 0.46375 8.1025 0.1875 7.125 C-0.74986588 3.74732727 -0.74986588 3.74732727 -4 2 C-7.52295483 1.62521757 -9.34881863 1.58872755 -12.375 3.5 C-12.91125 3.995 -13.4475 4.49 -14 5 C-14.66 4.67 -15.32 4.34 -16 4 C-10.3122161 -0.64003423 -7.22791303 -1.98144512 0 0 Z " fill="#9999E3" transform="translate(55,12)"/>
<path d="M0 0 C0 0.33 0 0.66 0 1 C-1.7015625 1.2165625 -1.7015625 1.2165625 -3.4375 1.4375 C-6.80777201 1.61171478 -6.80777201 1.61171478 -8 3 C-17.0090468 4.63043515 -25.84567805 5.30684878 -35 5 C-32.56799869 2.56799869 -31.48118338 2.58316053 -28.125 2.1484375 C-27.13886719 2.01953125 -26.15273437 1.890625 -25.13671875 1.7578125 C-23.58404297 1.56832031 -23.58404297 1.56832031 -22 1.375 C-20.99582031 1.2409375 -19.99164063 1.106875 -18.95703125 0.96875 C-12.60320813 0.16322003 -6.40231092 -0.17528451 0 0 Z " fill="#393970" transform="translate(92,43)"/>
<path d="M0 0 C0.33 0.99 0.66 1.98 1 3 C-1.31840535 5.31840535 -2.26354384 5.44763644 -5.4375 5.875 C-6.61119141 6.05675781 -6.61119141 6.05675781 -7.80859375 6.2421875 C-8.89333984 6.12230469 -8.89333984 6.12230469 -10 6 C-10.99 4.68 -11.98 3.36 -13 2 C-8.71 1.34 -4.42 0.68 0 0 Z " fill="#2B2B54" transform="translate(93,88)"/>
<path d="M0 0 C2.0625 0.4375 2.0625 0.4375 4 1 C4 2.98 4 4.96 4 7 C2.02 7.99 2.02 7.99 0 9 C-0.66 8.34 -1.32 7.68 -2 7 C-1.43181818 1.43181818 -1.43181818 1.43181818 0 0 Z " fill="#424263" transform="translate(66,63)"/>
<path d="M0 0 C4.29 0.66 8.58 1.32 13 2 C13 2.99 13 3.98 13 5 C8.48382401 5.07654536 4.40914783 5.10228696 0 4 C0 2.68 0 1.36 0 0 Z " fill="#3E3E7A" transform="translate(4,92)"/>
<path d="M0 0 C0.66 0 1.32 0 2 0 C2.33951619 1.56116819 2.67132544 3.12401338 3 4.6875 C3.185625 5.55761719 3.37125 6.42773438 3.5625 7.32421875 C3.98972047 9.93712964 4.07616201 12.35813038 4 15 C2.68 14.34 1.36 13.68 0 13 C0 8.71 0 4.42 0 0 Z " fill="#FAD6B7" transform="translate(33,32)"/>
<path d="M0 0 C4.95 0.33 9.9 0.66 15 1 C11.53096493 2.73451754 9.68206869 3.30172523 6 3.8125 C2.18330366 4.50490951 1.22642461 4.77357539 -1.625 7.625 C-2.07875 8.40875 -2.5325 9.1925 -3 10 C-2.50168276 6.31245243 -1.89932357 4.39509338 1 2 C0.67 1.34 0.34 0.68 0 0 Z " fill="#2E2D47" transform="translate(35,47)"/>
<path d="M0 0 C1.32 0.66 2.64 1.32 4 2 C3.67 3.65 3.34 5.3 3 7 C1.68 7 0.36 7 -1 7 C-1.625 4.625 -1.625 4.625 -2 2 C-1.34 1.34 -0.68 0.68 0 0 Z " fill="#414060" transform="translate(74,63)"/>
<path d="M0 0 C0.33 0 0.66 0 1 0 C1 2.64 1 5.28 1 8 C1.33 8 1.66 8 2 8 C2 10.64 2 13.28 2 16 C1.67 15.34 1.34 14.68 1 14 C0.01 14.33 -0.98 14.66 -2 15 C-3.53760842 11.92478317 -2.36599236 9.65324882 -1.5625 6.375 C-1.27503906 5.18648437 -0.98757812 3.99796875 -0.69140625 2.7734375 C-0.46324219 1.85820312 -0.23507813 0.94296875 0 0 Z " fill="#A7A7F8" transform="translate(58,19)"/>
<path d="M0 0 C0.33 0.66 0.66 1.32 1 2 C0.22265625 3.7265625 0.22265625 3.7265625 -0.9375 5.625 C-1.618125 6.73875 -2.29875 7.8525 -3 9 C-2.34 9.66 -1.68 10.32 -1 11 C-3.95664519 12.4783226 -6.74229737 12.06032783 -10 12 C-8.9171875 11.2575 -8.9171875 11.2575 -7.8125 10.5 C-4.34111489 7.41432434 -2.2836532 4.00368136 0 0 Z " fill="#0A0A13" transform="translate(60,36)"/>
<path d="M0 0 C1.22589844 0.15275391 1.22589844 0.15275391 2.4765625 0.30859375 C3.41628906 0.43427734 3.41628906 0.43427734 4.375 0.5625 C3.385 1.0575 3.385 1.0575 2.375 1.5625 C2.045 2.2225 1.715 2.8825 1.375 3.5625 C1.045 3.2325 0.715 2.9025 0.375 2.5625 C-3.09756915 2.25382719 -5.0122288 2.17548661 -8 4.0625 C-8.53625 4.5575 -9.0725 5.0525 -9.625 5.5625 C-10.285 5.2325 -10.945 4.9025 -11.625 4.5625 C-5.21098726 -0.66998408 -5.21098726 -0.66998408 0 0 Z " fill="#5B5356" transform="translate(50.625,11.4375)"/>
<path d="M0 0 C0.99 0 1.98 0 3 0 C3.33 1.98 3.66 3.96 4 6 C2.68 6 1.36 6 0 6 C0 4.02 0 2.04 0 0 Z " fill="#FDFAFA" transform="translate(61,65)"/>
<path d="M0 0 C0.99 0.33 1.98 0.66 3 1 C3 2.32 3 3.64 3 5 C1.68 5 0.36 5 -1 5 C-0.67 3.35 -0.34 1.7 0 0 Z " fill="#36354B" transform="translate(70,71)"/>
</svg>
